<svg width="263" height="89" viewBox="0 0 263 89" fill="none" xmlns="http://www.w3.org/2000/svg">
<path d="M135.807 37.2811L134.617 38.1944L135.807 37.2811ZM259.082 88.6196C259.902 88.7377 260.662 88.1688 260.781 87.3489L262.706 73.9869C262.825 73.167 262.256 72.4065 261.436 72.2883C260.616 72.1701 259.855 72.739 259.737 73.559L258.025 85.4363L246.148 83.7245C245.328 83.6063 244.568 84.1752 244.449 84.9952C244.331 85.8151 244.9 86.5756 245.72 86.6938L259.082 88.6196ZM1.54983 9.97553C34.8282 3.53529 61.3926 1.85336 82.9855 6.14613C104.508 10.4249 121.15 20.6503 134.617 38.1944L136.997 36.3677C123.082 18.2403 105.799 7.62294 83.5705 3.20371C61.4118 -1.20155 34.3964 0.563185 0.979828 7.03018L1.54983 9.97553ZM134.617 38.1944C144.713 51.3466 154.568 56.9898 164.523 58.9538C174.351 60.8928 184.166 59.1977 193.878 58.0434C203.677 56.8787 213.544 56.2224 224.021 59.8693C234.481 63.5103 245.736 71.5118 258.095 88.0334L260.497 86.2364C247.891 69.3851 236.185 60.927 225.007 57.0361C213.846 53.1512 203.398 53.8908 193.524 55.0644C183.562 56.2484 174.346 57.834 165.103 56.0105C155.987 54.2121 146.732 49.0497 136.997 36.3677L134.617 38.1944Z" fill="#041014" fill-opacity="0.69"/>
</svg>
