<svg width="478" height="100" viewBox="0 0 478 100" fill="none" xmlns="http://www.w3.org/2000/svg">
<path d="M65.008 30C57.124 30 52.5 32.9743 52.5 39.7514V45.7143H42.5V52.8571H52.5V70H62.5V52.8571H70.5L72.5 45.7143H62.5V40.96C62.5 38.4071 63.666 37.1429 67.02 37.1429H72.5V30.2929C71.552 30.2014 68.79 30 65.008 30Z" fill="white"/>
<path d="M173.495 43.3305C169.822 43.3305 166.825 46.3275 166.825 50C166.825 53.6725 169.822 56.6695 173.495 56.6695C177.167 56.6695 180.164 53.6725 180.164 50C180.164 46.3275 177.167 43.3305 173.495 43.3305ZM193.498 50C193.498 47.2381 193.523 44.5013 193.368 41.7444C193.213 38.5423 192.482 35.7003 190.141 33.3588C187.794 31.0122 184.957 30.2867 181.755 30.1316C178.993 29.9765 176.256 30.0015 173.5 30.0015C170.738 30.0015 168.001 29.9765 165.244 30.1316C162.042 30.2867 159.2 31.0172 156.859 33.3588C154.512 35.7053 153.787 38.5423 153.632 41.7444C153.476 44.5063 153.501 47.2431 153.501 50C153.501 52.7569 153.476 55.4987 153.632 58.2556C153.787 61.4577 154.517 64.2997 156.859 66.6412C159.205 68.9878 162.042 69.7133 165.244 69.8684C168.006 70.0235 170.743 69.9985 173.5 69.9985C176.261 69.9985 178.998 70.0235 181.755 69.8684C184.957 69.7133 187.799 68.9828 190.141 66.6412C192.487 64.2947 193.213 61.4577 193.368 58.2556C193.528 55.4987 193.498 52.7619 193.498 50ZM173.495 60.2619C167.816 60.2619 163.233 55.6788 163.233 50C163.233 44.3212 167.816 39.7381 173.495 39.7381C179.173 39.7381 183.756 44.3212 183.756 50C183.756 55.6788 179.173 60.2619 173.495 60.2619ZM184.177 41.7144C182.851 41.7144 181.78 40.6437 181.78 39.3178C181.78 37.9919 182.851 36.9212 184.177 36.9212C185.503 36.9212 186.573 37.9919 186.573 39.3178C186.574 39.6326 186.512 39.9444 186.392 40.2354C186.271 40.5263 186.095 40.7907 185.872 41.0133C185.65 41.236 185.385 41.4125 185.094 41.5328C184.803 41.6531 184.491 41.7148 184.177 41.7144Z" fill="white"/>
<path d="M309.5 34.375H279.5C278.837 34.375 278.201 34.7042 277.732 35.2903C277.263 35.8763 277 36.6712 277 37.5V62.5C277 63.3288 277.263 64.1237 277.732 64.7097C278.201 65.2958 278.837 65.625 279.5 65.625H309.5C310.163 65.625 310.799 65.2958 311.268 64.7097C311.737 64.1237 312 63.3288 312 62.5V37.5C312 36.6712 311.737 35.8763 311.268 35.2903C310.799 34.7042 310.163 34.375 309.5 34.375ZM306.75 37.5L294.5 48.0938L282.25 37.5H306.75ZM279.5 62.5V38.9219L293.788 51.2812C293.997 51.4627 294.245 51.5599 294.5 51.5599C294.755 51.5599 295.003 51.4627 295.212 51.2812L309.5 38.9219V62.5H279.5Z" fill="white"/>
<path d="M435.5 34.7447C434.029 35.5465 432.449 36.0883 430.788 36.3332C432.502 35.0715 433.784 33.0858 434.395 30.7466C432.785 31.9232 431.022 32.7515 429.184 33.1953C427.948 31.5719 426.311 30.4959 424.527 30.1343C422.743 29.7728 420.912 30.1459 419.318 31.1957C417.724 32.2455 416.456 33.9134 415.712 35.9403C414.967 37.9672 414.787 40.2398 415.201 42.4051C411.937 42.2036 408.745 41.1603 405.831 39.3429C402.917 37.5256 400.346 34.9748 398.285 31.8561C397.581 33.3513 397.175 35.085 397.175 36.9313C397.175 38.5933 397.507 40.23 398.144 41.696C398.781 43.1619 399.702 44.4119 400.825 45.335C399.522 45.284 398.248 44.8508 397.108 44.0716V44.2016C397.108 46.5328 397.764 48.7922 398.964 50.5965C400.164 52.4008 401.834 53.6388 403.692 54.1006C402.483 54.503 401.215 54.5623 399.985 54.2739C400.509 56.2797 401.53 58.0338 402.905 59.2904C404.28 60.5471 405.939 61.2434 407.652 61.2821C404.745 64.0892 401.155 65.612 397.459 65.6053C396.804 65.6055 396.15 65.5584 395.5 65.4644C399.251 68.4314 403.618 70.0061 408.078 70C423.176 70 431.429 54.6185 431.429 41.2783C431.429 40.8449 431.42 40.4072 431.404 39.9737C433.01 38.5456 434.395 36.7772 435.496 34.7512L435.5 34.7447Z" fill="white"/>
</svg>
