<svg width="175" height="166" viewBox="0 0 175 166" fill="none" xmlns="http://www.w3.org/2000/svg">
<path opacity="0.1" d="M128.235 81.0319C128.126 78.1533 127.921 75.0837 127.582 71.907C127.126 65.5612 126.255 59.636 124.676 55.9088C115.985 54.2841 70.8309 57.3117 70.7974 57.3117L70.5169 56.1649L70.4038 55.71L70.2029 54.9111L70.1484 54.7276C69.8554 53.6496 69.5246 52.583 69.1395 51.5241C69.1395 51.5241 34.9088 48.7335 23.5544 51.44C23.5544 51.5318 23.5544 51.6197 23.5544 51.7114L23.5879 54.2688C23.6214 59.2193 23.4958 63.8639 23.7763 68.9635V69.0017C23.722 68.9972 23.6674 68.9972 23.613 69.0017C23.1724 69.0549 22.7565 69.2184 22.4114 69.4741C22.0663 69.7298 21.8055 70.0678 21.6578 70.4505C21.5452 70.7474 21.5038 71.0629 21.5364 71.3756L21.6871 72.985C21.6871 73.0117 21.6871 73.0347 21.6871 73.0614C22.1058 77.1212 22.5245 81.1427 22.5245 81.1427C22.5245 81.1427 22.7422 81.1618 23.0981 81.1771L24.9779 81.2994C20.9754 81.6358 16.6045 86.4602 16.7971 90.6078C16.9896 94.7555 12.6103 102.565 13.7031 107.046C14.5404 110.547 18.8485 116.178 20.9461 120.456L20.7828 121.304L11.4171 138.476C12.0451 137.635 17.6972 160.075 43.9479 155.323L62.6249 127.539C64.7081 126.105 66.6145 124.468 68.3105 122.658C69.0263 122.008 69.6217 121.257 70.0731 120.433C70.74 119.46 71.249 118.404 71.5845 117.298C71.6682 117.008 71.7561 116.721 71.8483 116.427C73.3722 112.883 75.407 108.047 76.8974 104.698C96.575 104.163 117.237 103.066 127.611 100.837H127.632C128.637 94.6064 128.658 87.6146 128.235 81.0319ZM27.1801 96.7319C27.0177 95.6967 26.9198 94.654 26.8871 93.6087C27.1173 94.7096 27.3685 95.8067 27.6323 96.9077C27.4816 96.8465 27.3308 96.7854 27.1801 96.7319Z" fill="black"/>
<path d="M9.27771 137.379C9.27771 137.379 17.6846 160.075 43.948 155.323C43.948 155.323 49.7759 130.342 54.6576 126.653C57.806 124.282 64.7602 120.032 66.2464 116.954C67.7327 113.877 73.703 99.2625 74.8585 97.504C76.0141 95.7456 62.3319 75.5117 62.3319 75.5117L33.5105 89.0901L17.4753 115.085C17.4753 115.085 14.3981 131.905 9.27771 137.379Z" fill="white"/>
<path d="M17.1947 117.111C17.1947 117.111 15.139 131.144 8.34399 138.476" stroke="#263238" stroke-linecap="round" stroke-linejoin="round"/>
<path d="M43.9479 155.323C43.9479 155.323 49.7423 131.152 54.6575 126.652C54.6575 126.652 65.7607 120.758 67.7619 113.819C69.1478 109.014 71.6682 103.475 72.8739 100.96" stroke="#263238" stroke-linecap="round" stroke-linejoin="round"/>
<path d="M46.2841 101.736C45.8654 101.491 53.0038 106.705 53.2801 113.831" stroke="#263238" stroke-linecap="round" stroke-linejoin="round"/>
<path d="M123.81 97.3666C100.665 102.336 26.1251 101.682 26.1251 101.682C25.4971 100.474 24.7393 97.4315 24.0066 93.907C22.5412 86.831 21.1722 77.8131 21.1722 77.8131L18.7062 77.6564C18.7062 77.6564 18.2875 73.6348 17.8688 69.5751C17.4502 65.5153 19.9622 65.5191 19.9622 65.5191L19.7822 51.4667L19.7361 47.9574C31.0905 45.2508 65.3212 48.0415 65.3212 48.0415L66.3888 51.4284L66.9833 53.8291L120.858 52.4415C125.798 64.1047 123.81 97.3666 123.81 97.3666Z" fill="#44B1C0"/>
<path d="M114.859 63.277L79.523 64.8902C78.0686 64.9566 76.9485 66.0869 77.0212 67.4149L77.3802 73.9708C77.4529 75.2987 78.6909 76.3214 80.1453 76.255L115.481 74.6419C116.936 74.5755 118.056 73.4451 117.983 72.1172L117.624 65.5612C117.551 64.2333 116.313 63.2106 114.859 63.277Z" fill="#263238"/>
<path d="M117.789 78.9255L117.902 80.015L77.2156 81.4523L77.1821 80.4737L117.789 78.9255Z" fill="#263238"/>
<path d="M117.99 82.7137L118.028 83.6924L77.3454 85.0648L77.3077 84.09L117.99 82.7137Z" fill="#263238"/>
<path opacity="0.3" d="M120.85 52.4415C120.85 52.4415 126.853 78.4361 123.81 97.3663C123.81 97.3663 85.8444 101.434 72.8447 100.776L72.313 94.4496L73.4015 94.2967C73.4015 94.2967 68.1597 58.187 66.9707 53.8291C66.9707 53.8291 112.183 50.813 120.85 52.4415Z" fill="black"/>
<path opacity="0.8" d="M71.0611 94.3579L71.5091 99.1401C71.5091 99.1401 33.2424 100.669 29.8763 99.5568C26.5102 98.4444 30.0563 96.6706 38.9573 96.0323C47.8583 95.3939 71.0611 94.3579 71.0611 94.3579Z" fill="white"/>
<path d="M48.2142 74.0745C50.1449 74.0745 51.7101 72.7806 51.7101 71.1844C51.7101 69.5883 50.1449 68.2944 48.2142 68.2944C46.2834 68.2944 44.7183 69.5883 44.7183 71.1844C44.7183 72.7806 46.2834 74.0745 48.2142 74.0745Z" fill="#263238"/>
<path d="M21.1722 77.8092C21.9609 85.8957 23.6184 93.8919 26.1209 101.682C42.3528 101.556 58.5806 101.392 74.8083 100.918C91.036 100.444 107.712 99.4421 123.793 97.3664C123.793 97.3664 126.673 74.1393 120.833 52.4414C114.377 51.2143 67.134 53.8214 67.134 53.8214" stroke="#263238" stroke-linecap="round" stroke-linejoin="round"/>
<path d="M71.0612 94.3586L71.5091 99.1409L35.0847 99.9054C33.5816 100.024 31.2412 100.204 29.8596 99.5576C29.2316 99.2632 28.7795 98.5445 29.0767 97.9558C29.3447 97.4283 30.048 97.241 30.676 97.1263C35.1307 96.2891 39.6775 95.9374 44.2117 95.6316C53.9193 94.9741 63.6423 94.5294 73.3806 94.2975C73.1755 94.2975 70.8016 76.4108 70.5378 74.7594C69.5079 68.2989 68.5282 61.8117 67.2554 55.3857C66.7961 52.8977 66.1399 50.4435 65.2919 48.0422C50.2866 47.0635 34.6157 46.1575 19.7026 47.9581C19.8408 54.0248 19.5938 59.4263 19.9329 65.5198" stroke="#263238" stroke-linecap="round" stroke-linejoin="round"/>
<path d="M25.564 99.8818C25.4744 99.6345 25.4209 99.3773 25.4049 99.1172" stroke="#263238" stroke-linecap="round" stroke-linejoin="round"/>
<path d="M25.6478 97.6685C26.2047 96.3955 27.8752 94.9581 32.4178 94.4994C40.7033 93.6584 58.7648 92.1446 69.3614 91.7776" stroke="#263238" stroke-linecap="round" stroke-linejoin="round" stroke-dasharray="3.91 3.91"/>
<path d="M70.1819 91.7507L71.0192 91.724L70.9062 90.9595" stroke="#263238" stroke-linecap="round" stroke-linejoin="round"/>
<path d="M70.6718 89.4954C68.7668 76.9835 66.6567 64.5634 64.241 52.1204" stroke="#263238" stroke-linecap="round" stroke-linejoin="round" stroke-dasharray="3.88 3.88"/>
<path d="M64.1069 51.3903L63.9562 50.6257L63.1189 50.5721" stroke="#263238" stroke-linecap="round" stroke-linejoin="round"/>
<path d="M61.4275 50.4727C54.465 50.0484 34.666 48.9897 21.4568 49.8153" stroke="#263238" stroke-linecap="round" stroke-linejoin="round" stroke-dasharray="4.07 4.07"/>
<path d="M20.6028 49.8726L19.7654 49.9347" stroke="#263238" stroke-linecap="round" stroke-linejoin="round"/>
<path d="M18.7061 77.6563L17.7055 67.9083C17.6751 67.6155 17.7098 67.3202 17.8073 67.0399C17.9049 66.7596 18.0633 66.5002 18.2732 66.2772C18.4831 66.0541 18.7401 65.872 19.0289 65.7417C19.3176 65.6115 19.6322 65.5358 19.9538 65.5191C26.1082 65.1941 42.0262 64.4296 48.1346 64.8768C51.0653 65.0909 54.2514 65.951 55.6707 68.5123C56.8513 70.6224 57.0272 73.7877 55.0469 75.5232C52.0324 78.1609 46.3134 77.9583 42.4281 78.0844C35.1934 78.3367 18.7103 77.7136 18.7061 77.6563Z" stroke="#263238" stroke-linecap="round" stroke-linejoin="round"/>
<path d="M56.5542 71.6966C56.5542 71.4252 58.0781 77.297 52.5098 79.2351C46.9414 81.1733 21.1722 80.5616 21.1722 80.5616V77.8092C21.1722 77.8092 39.4012 78.1609 42.4365 78.0845C45.4719 78.008 56.2276 78.9293 56.5542 71.6966Z" fill="#263238"/>
<path d="M51.1993 104.496C51.1993 104.496 55.7545 106.931 57.4585 111.507" stroke="#263238" stroke-linecap="round" stroke-linejoin="round"/>
<path d="M17.8311 66.9831C17.8311 66.9831 40.1715 66.0235 45.857 66.1956C51.5426 66.3676 54.3268 67.5106 54.892 70.7638C55.4572 74.017 52.0115 76.043 49.265 76.4253C46.5185 76.8076 18.702 76.9185 18.702 76.9185" stroke="#263238" stroke-linecap="round" stroke-linejoin="round" stroke-dasharray="4 4"/>
<path d="M33.1838 106.392C33.1838 106.392 29.7256 95.4246 23.3618 93.2648C23.3618 93.2648 22.1058 85.7798 24.8188 85.367C27.5318 84.9541 35.1935 80.3439 33.1922 74.5907C31.191 68.8374 25.183 77.4768 21.1805 77.8094C17.178 78.142 12.8071 82.9701 12.9871 87.1216C13.1671 91.2731 8.80038 99.083 9.89312 103.559C10.9858 108.036 17.7223 116.022 18.2666 120.177" fill="white"/>
<path d="M33.1838 106.392C33.1838 106.392 29.7256 95.4246 23.3618 93.2648C23.3618 93.2648 22.1058 85.7798 24.8188 85.367C27.5318 84.9541 35.1935 80.3439 33.1922 74.5907C31.191 68.8374 25.183 77.4768 21.1805 77.8094C17.178 78.142 12.8071 82.9701 12.9871 87.1216C13.1671 91.2731 8.80038 99.083 9.89312 103.559C10.9858 108.036 17.7223 116.022 18.2666 120.177" stroke="#263238" stroke-linecap="round" stroke-linejoin="round"/>
<path d="M24.8063 76.1234C24.8063 76.1234 29.6001 76.9186 32.2042 74.1394C34.8084 71.3602 31.8107 71.1843 31.8107 71.1843L24.8063 76.1234Z" fill="white" stroke="#263238" stroke-linecap="round" stroke-linejoin="round"/>
<path d="M16.2444 82.3162C17.1195 82.3711 17.9657 82.6247 18.7062 83.0541" stroke="#263238" stroke-linecap="round" stroke-linejoin="round"/>
<path d="M16.0979 83.9065C16.9696 83.982 17.8 84.2815 18.4927 84.7705" stroke="#263238" stroke-linecap="round" stroke-linejoin="round"/>
<path d="M29.0389 98.5974C29.0389 98.5974 49.5539 97.6303 54.9548 97.9132" stroke="#263238" stroke-linecap="round" stroke-linejoin="round"/>
<path d="M49.9601 96.4841C49.9601 96.4841 55.1223 96.1002 58.3335 96.4841" stroke="#263238" stroke-linecap="round" stroke-linejoin="round"/>
<path d="M63.0394 97.8596H71.3919" stroke="#263238" stroke-linecap="round" stroke-linejoin="round"/>
<path d="M68.0928 55.9699C68.0928 55.9699 104.781 52.9767 119.522 54.6855C119.522 54.6855 123.5 61.3638 122.633 95.5888C106.065 97.528 89.3945 98.6598 72.694 98.9796" stroke="#263238" stroke-linecap="round" stroke-linejoin="round" stroke-dasharray="4 4"/>
<g opacity="0.1">
<path opacity="0.1" d="M167.41 103.334C166.368 99.2855 164.839 97.764 163.307 96.5943C163.307 96.5943 163.274 94.3006 161.31 92.9932C160.786 92.5714 160.226 92.188 159.635 91.8464C157.793 90.5849 155.763 89.1705 155.763 89.1705C154.808 86.6475 153.514 83.5931 152.116 80.5884L152.187 81.2727C150.755 78.0807 149.353 74.904 148.959 73.8489V73.826C149.378 74.8428 149.797 75.8253 150.257 76.7312L145.015 59.8156C144.89 59.1351 144.76 58.4661 144.63 57.8201C144.379 55.9087 143.696 52.3077 142.051 52.0515C141.99 52.0478 141.928 52.0478 141.867 52.0515C141.867 52.0515 139.928 51.287 139.928 54.4255C137.622 55.1289 136.73 56.7191 136.508 58.5885C136.388 59.1814 136.374 59.7881 136.466 60.3851C136.508 61.0771 136.596 61.7843 136.713 62.4877L129.286 53.573L128.57 52.7243L119.409 41.7148L107.096 26.8825C106.638 26.3319 106.066 25.8692 105.411 25.5206C104.757 25.1721 104.034 24.9447 103.284 24.8513C102.534 24.7579 101.771 24.8005 101.038 24.9765C100.306 25.1525 99.6186 25.4586 99.0158 25.8771L83.7301 36.4776L77.764 40.6139C73.1879 42.789 74.3811 47.0858 75.6497 48.6111L102.307 80.6496C102.168 80.6336 102.028 80.6272 101.888 80.6305C101.888 80.6305 101.126 78.9905 99.2419 79.2504C98.8407 79.2674 98.4524 79.3851 98.1198 79.5907C97.8159 79.7366 97.5579 79.9511 97.3704 80.2138C97.1616 80.4439 96.974 80.6894 96.8094 80.9477C95.8506 82.4463 96.7382 86.1123 98.124 90.5887C98.2119 90.8793 98.2999 91.1583 98.3836 91.4183V91.4603L98.7395 92.5804C100.096 96.8772 102.633 105.314 103.102 109.45C103.136 109.832 103.156 110.242 103.165 110.624C103.194 115.387 100.879 123.361 101.875 126.656C102.005 127.088 102.139 127.501 102.273 127.91C103.014 130.112 103.676 132.196 104.84 134.264C106.255 136.787 107.942 139.207 109.52 141.649C112.417 146.137 115.415 150.572 118.513 154.952C119.941 156.963 121.612 158.798 123.228 160.687C123.969 161.554 125.585 162.858 125.865 163.97C125.865 163.97 140.196 165.052 148.218 160.4L147.465 149.987L152.844 121.756C154.381 119.626 159.125 115.467 160.071 114.152C160.561 113.498 161.038 112.849 161.503 112.214C165.04 109.198 166.811 106.862 167.59 104.144C167.607 104.152 167.552 103.842 167.41 103.334ZM117.797 109.5L117.726 109.378C119.19 109.983 120.741 110.395 122.332 110.601C120.661 110.425 118.773 110.18 117.797 109.5ZM123.843 110.765L124.613 110.815C124.356 110.814 124.098 110.797 123.843 110.765ZM117.647 109.213L116.684 107.47C115.344 103.961 112.317 95.6883 112.304 95.6539C111.712 93.2701 110.919 90.9313 109.935 88.6582C110.647 88.8875 111.41 88.9517 112.157 88.8449C112.903 88.7381 113.608 88.4638 114.209 88.0466L121.536 82.9662C122.294 83.3828 123.069 83.7575 123.826 84.0862L130.688 88.9832L125.246 109.408L117.647 109.213ZM145.421 62.1704C145.991 64.6093 146.891 68.1186 148.084 71.517C146.926 68.4705 146.033 65.3452 145.413 62.1704H145.421Z" fill="black"/>
<path opacity="0.1" d="M114.318 160.316L114.362 160.5C114.362 160.5 114.349 160.431 114.318 160.316Z" fill="black"/>
</g>
<path d="M139.753 62.9195C140.171 62.6672 146.309 59.6166 149.382 68.7645C152.455 77.9124 156.06 93.4786 156.06 93.4786L148.758 94.7745C148.758 94.7745 141.993 91.487 135.93 83.2527C135.93 83.2527 127.431 81.242 123.73 76.4635C120.381 72.1209 130.713 56.1761 130.713 56.1761L139.753 62.9195Z" fill="white"/>
<path d="M137.128 74.3038C138.936 76.7809 142.361 81.9913 146.983 83.635" stroke="#263238" stroke-linecap="round" stroke-linejoin="round"/>
<path d="M132.011 76.9684C132.849 77.278 134.942 78.379 135.93 78.421C135.93 78.421 140.196 86.1314 147.234 88.6353" stroke="#263238" stroke-linecap="round" stroke-linejoin="round"/>
<path d="M128.097 79.8085C130.713 81.8078 133.833 83.1725 135.93 83.249C135.93 83.249 140.196 90.9595 147.234 93.4634" stroke="#263238" stroke-linecap="round" stroke-linejoin="round"/>
<path d="M106.075 23.9355L82.9243 39.9921C80.9136 41.3867 80.5217 44.0054 82.049 45.8413L114.204 84.4927C115.731 86.3286 118.599 86.6864 120.61 85.2918L143.761 69.2353C145.771 67.8407 146.163 65.2219 144.636 63.386L112.481 24.7347C110.954 22.8988 108.086 22.541 106.075 23.9355Z" fill="#263238"/>
<path d="M143.102 68.3975L121.859 83.1342C121.256 83.5536 120.569 83.8602 119.836 84.0365C119.103 84.2127 118.34 84.2552 117.589 84.1615C116.838 84.0677 116.115 83.8396 115.461 83.4901C114.807 83.1406 114.235 82.6767 113.778 82.125L83.0686 45.2126C82.5683 44.6164 82.2168 43.9275 82.0387 43.1942C81.7911 42.2095 81.8606 41.1804 82.2387 40.2309C82.6167 39.2814 83.2873 38.4519 84.1697 37.8423L90.14 33.7061L105.422 23.1018C106.025 22.6834 106.712 22.3777 107.445 22.2019C108.177 22.0262 108.94 21.984 109.691 22.0777C110.441 22.1715 111.164 22.3993 111.818 22.7482C112.472 23.097 113.044 23.5601 113.502 24.111L125.823 38.9203L134.984 49.9299L144.195 61.0158C144.654 61.5659 144.991 62.1932 145.184 62.862C145.378 63.5308 145.426 64.2279 145.324 64.9135C145.223 65.5991 144.974 66.2597 144.593 66.8575C144.212 67.4553 143.705 67.9786 143.102 68.3975Z" fill="#44B1C0"/>
<path opacity="0.1" d="M125.807 38.9204L90.1274 33.7023L105.422 23.1018C106.025 22.6834 106.712 22.3777 107.445 22.2019C108.177 22.0262 108.94 21.984 109.691 22.0777C110.441 22.1715 111.164 22.3993 111.818 22.7482C112.472 23.097 113.044 23.5601 113.502 24.111L125.807 38.9204Z" fill="black"/>
<path opacity="0.1" d="M143.102 68.3976L121.859 83.1342C121.256 83.5536 120.569 83.8602 119.836 84.0365C119.103 84.2127 118.34 84.2552 117.589 84.1615C116.838 84.0677 116.115 83.8396 115.461 83.4901C114.807 83.1406 114.235 82.6768 113.778 82.125L83.0686 45.2126C82.5683 44.6164 82.2168 43.9275 82.0387 43.1942L135.687 50.8129L144.195 61.0388C145.115 62.1481 145.517 63.5451 145.312 64.9241C145.107 66.3031 144.313 67.552 143.102 68.3976Z" fill="black"/>
<path d="M108.437 26.8498L104.686 29.4511C103.935 29.9722 103.788 30.9506 104.359 31.6365L108.9 37.0947C109.47 37.7806 110.542 37.9143 111.293 37.3932L115.044 34.7919C115.795 34.2709 115.941 33.2924 115.371 32.6065L110.83 27.1484C110.259 26.4624 109.188 26.3288 108.437 26.8498Z" fill="white" stroke="#263238" stroke-linecap="round" stroke-linejoin="round"/>
<path d="M106.64 28.0905L113.117 36.126" stroke="#263238" stroke-linecap="round" stroke-linejoin="round"/>
<path d="M106.64 34.3789L113.117 29.8948" stroke="#263238" stroke-linecap="round" stroke-linejoin="round"/>
<path d="M119.183 80.7297L118.078 81.4713L104.593 65.2629L105.689 64.506L119.183 80.7297Z" fill="#263238"/>
<path d="M121.055 79.4645L119.949 80.2137L106.447 63.9785L107.536 63.2216L121.055 79.4645Z" fill="#263238"/>
<path d="M122.922 78.2067L121.821 78.9484L108.298 62.6979L109.391 61.9371L122.922 78.2067Z" fill="#263238"/>
<path d="M124.793 76.9414L123.688 77.683L110.345 61.6466L111.434 60.8859L124.793 76.9414Z" fill="#263238"/>
<path d="M126.811 75.5806L125.706 76.326L112.342 60.2628L113.435 59.5021L126.811 75.5806Z" fill="#263238"/>
<path d="M126.811 56.6809L125.706 57.4225L112.342 41.3593L113.435 40.6024L126.811 56.6809Z" fill="#263238"/>
<path d="M97.7065 28.495L95.9962 29.6812L133.654 74.9474L135.364 73.7612L97.7065 28.495Z" fill="#263238"/>
<path d="M143.102 68.3975L121.859 83.1342C121.256 83.5536 120.569 83.8602 119.836 84.0365C119.103 84.2127 118.34 84.2552 117.589 84.1615C116.838 84.0677 116.115 83.8395 115.461 83.4901C114.807 83.1406 114.235 82.6767 113.778 82.125L83.0686 45.2126C82.5683 44.6164 82.2168 43.9275 82.0387 43.1942C81.7911 42.2095 81.8606 41.1804 82.2387 40.2309C82.6167 39.2814 83.2873 38.4519 84.1697 37.8423L90.14 33.7061L105.422 23.1018C106.025 22.6834 106.712 22.3777 107.445 22.2019C108.177 22.0262 108.94 21.984 109.691 22.0777C110.441 22.1715 111.164 22.3993 111.818 22.7482C112.472 23.097 113.044 23.5601 113.502 24.111L125.823 38.9203L134.984 49.9299L144.195 61.0158C144.654 61.5659 144.991 62.1932 145.184 62.862C145.378 63.5308 145.426 64.2279 145.324 64.9135C145.223 65.5991 144.974 66.2597 144.593 66.8575C144.212 67.4553 143.705 67.9786 143.102 68.3975V68.3975Z" stroke="#263238" stroke-linecap="round" stroke-linejoin="round"/>
<path d="M125.882 163.966C125.882 163.966 150.609 171.994 158.09 154.509C158.09 154.509 146.389 141.511 152.778 130.892C156.797 124.202 167.913 109.435 167.913 109.435C167.913 109.435 172.556 105.409 174 101.365C174 101.365 173.205 96.8579 169.704 93.8073C169.704 93.8073 169.667 91.5136 167.703 90.2063C165.74 88.8989 162.139 86.3835 162.139 86.3835C162.139 86.3835 156.219 73.4167 155.34 71.0734C154.461 68.73 152.694 64.2995 151.81 59.4063C150.927 54.5132 150.111 49.2455 148.235 49.2608C148.235 49.2608 146.301 48.4962 146.301 51.6347C146.301 51.6347 142.24 53.5461 142.838 57.5905C143.437 61.635 143.99 63.7261 143.83 66.0006C143.671 68.2751 144.471 76.1729 146.472 78.6501C146.472 78.6501 147.142 89.7361 148.147 92.6222C148.181 92.7102 148.21 92.7905 148.239 92.8631C149.294 95.3058 138.752 104.714 133.046 107.26C133.046 107.26 132.447 108.276 130.232 107.997C128.017 107.718 124.27 107.588 123.625 106.086C122.981 104.584 118.689 92.8631 118.689 92.8631C118.689 92.8631 115.218 77.8397 108.285 77.8435C108.285 77.8435 107.234 75.5498 104.517 76.8037C101.8 78.0576 103.579 84.8926 104.781 88.6313C105.983 92.3699 109.026 102.198 109.52 106.721C110.014 111.243 107.209 120.303 108.264 123.866C109.319 127.428 110.492 129.833 113.858 135.666C117.224 141.5 124.68 158.894 125.882 163.966Z" fill="white"/>
<path d="M125.882 163.966C125.882 163.966 120.59 145.778 112.811 134.015C105.032 122.253 109.608 118.093 109.608 108.303C109.608 98.5133 100.871 81.8461 103.228 78.1725C105.585 74.4988 108.8 77.4385 110.144 80.8675C111.488 84.2965 109.608 86.2576 105.84 86.5022" stroke="#263238" stroke-linecap="round" stroke-linejoin="round"/>
<path d="M108.285 77.8588C108.285 77.8588 112.803 77.6065 115.578 84.2008C118.354 90.795 122.801 107.52 127.431 112.608" stroke="#263238" stroke-linecap="round" stroke-linejoin="round"/>
<path d="M123.776 106.43C123.801 106.484 130.245 109.763 140.242 106.889" stroke="#263238" stroke-linecap="round" stroke-linejoin="round"/>
<path d="M109.143 97.2136C109.646 96.6524 110.301 96.2217 111.043 95.9647C111.785 95.7077 112.589 95.6334 113.372 95.7494" stroke="#263238" stroke-linecap="round" stroke-linejoin="round"/>
<path d="M110.002 99.2892C110.436 98.8153 111.007 98.4625 111.651 98.2711C112.294 98.0798 112.983 98.0577 113.64 98.2074" stroke="#263238" stroke-linecap="round" stroke-linejoin="round"/>
<path d="M146.301 51.6233C139.728 53.6226 144.626 62.6863 143.831 65.993C143.035 69.2997 145.087 75.6302 146.665 79.063C146.665 83.0883 148.235 92.8555 148.235 92.8555C147.264 95.9634 139.158 105.123 131.283 107.99" stroke="#263238" stroke-linecap="round" stroke-linejoin="round"/>
<path d="M151.124 56.1877C151.124 56.1877 150.634 49.2495 148.235 49.2495C145.836 49.2495 145.982 53.9247 146.979 57.3957C147.975 60.8667 151.852 60.3697 151.124 56.1877Z" stroke="#263238" stroke-linecap="round" stroke-linejoin="round"/>
<path d="M151.124 56.1876C151.124 56.1876 153.167 67.094 156.629 73.9445" stroke="#263238" stroke-linecap="round" stroke-linejoin="round"/>
<path d="M160.711 99.488C162.386 97.0109 163.127 94.6676 163.747 91.6859C163.592 89.8166 161.235 83.7155 158.497 77.8055" stroke="#263238" stroke-linecap="round" stroke-linejoin="round"/>
<path d="M162.361 86.9608C165.078 88.8263 169.805 90.2598 169.261 93.4786C168.66 96.6985 167.426 99.7926 165.618 102.611" stroke="#263238" stroke-linecap="round" stroke-linejoin="round"/>
<path d="M158.693 155.323C158.693 155.323 149.227 143.324 151.124 135.036C152.518 128.938 161.482 118.277 167.913 109.446C171.455 106.43 173.225 104.094 174 101.376C172.865 96.2731 171.023 94.786 169.252 93.4786" stroke="#263238" stroke-linecap="round" stroke-linejoin="round"/>
<path d="M161.218 88.941C160.164 88.6703 159.059 88.6002 157.974 88.735C156.889 88.8698 155.845 89.2068 154.909 89.7249" stroke="#263238" stroke-linecap="round" stroke-linejoin="round"/>
<path d="M160.686 90.9939C159.4 90.8161 158.086 91.0268 156.943 91.594" stroke="#263238" stroke-linecap="round" stroke-linejoin="round"/>
</svg>
