<svg width="550" height="388" viewBox="0 0 550 388" fill="none" xmlns="http://www.w3.org/2000/svg">
<path d="M458.308 337.352C458.308 337.352 409.079 271.233 420.444 254.369C431.809 237.506 460.828 267.827 460.828 267.827C460.828 267.827 435.589 206.158 449.475 179.217C463.36 152.276 487.339 179.217 488.599 198.284C489.859 217.351 483.547 249.866 483.547 249.866C483.547 249.866 493.651 182.623 517.63 202.77C541.609 222.916 487.339 290.229 487.339 290.229C487.339 290.229 523.943 274.533 522.671 294.715C521.399 314.897 478.506 332.84 478.506 332.84" fill="#44B1C0"/>
<path d="M458.724 325.019C458.724 325.019 413.171 292.494 435.37 277.922C457.568 263.35 469.245 293.618 469.245 293.618C469.245 293.618 444.711 200.549 484.425 197.178C524.139 193.807 494.935 277.913 494.935 277.913C494.935 277.913 528.81 242.036 526.475 271.233C524.139 300.431 473.916 325.063 473.916 325.063" stroke="#263238" stroke-miterlimit="10"/>
<path d="M481.095 319.099L450.319 293.574" stroke="#263238" stroke-miterlimit="10"/>
<path d="M474.69 321.064L483.026 246.451" stroke="#263238" stroke-miterlimit="10"/>
<path d="M473.407 315.658L500.981 287.681" stroke="#263238" stroke-miterlimit="10"/>
<path d="M513.294 310.455H428.144L436.664 387.315H504.774L513.294 310.455Z" fill="#263238"/>
<path d="M188.23 221.323C177.159 217.166 165.715 213.618 153.985 210.706C137.082 206.725 117.138 210.37 116.699 214.679C116.259 218.987 119.265 217.014 123.208 221.686C127.15 226.358 125.37 237.276 131.012 247.229C136.654 257.183 153.545 262.155 153.545 262.155L188.23 221.323Z" fill="#44B1C0" stroke="#263238" stroke-linecap="round" stroke-linejoin="round"/>
<path opacity="0.3" d="M176.957 230.95C176.957 230.95 150.944 218.342 135.775 214.024C120.606 209.706 119.739 216.015 119.739 216.015C122.235 216.716 124.376 218.003 125.857 219.693C127.338 221.382 128.082 223.387 127.983 225.42C127.983 232.87 132.85 248.3 144.678 251.485C156.505 254.67 176.957 230.95 176.957 230.95Z" fill="black"/>
<path d="M362.573 245.037C369.372 243.061 372.636 236.93 369.862 231.343C367.089 225.756 359.33 222.83 352.531 224.806C345.732 226.783 342.469 232.914 345.242 238.5C348.015 244.087 355.774 247.014 362.573 245.037Z" fill="#44B1C0" stroke="#263238" stroke-linecap="round" stroke-linejoin="round"/>
<path d="M176.183 350.703L190.773 384.201C191.169 385.109 191.928 385.898 192.943 386.457C193.958 387.016 195.177 387.316 196.427 387.315H219.169C220.332 387.317 221.47 387.057 222.443 386.568C223.415 386.078 224.178 385.382 224.637 384.564L234.811 366.497" fill="#44B1C0"/>
<path opacity="0.3" d="M183.501 350.703L195.571 384.201C195.8 385.042 196.383 385.802 197.231 386.365C198.079 386.928 199.145 387.262 200.265 387.315H219.122C220.158 387.275 221.151 386.988 221.964 386.494C222.776 386.001 223.367 385.326 223.654 384.564L232.094 366.497" fill="black"/>
<path d="M176.183 350.703L190.773 384.201C191.169 385.109 191.928 385.898 192.943 386.457C193.958 387.016 195.177 387.316 196.427 387.315H219.169C220.332 387.317 221.47 387.057 222.443 386.568C223.415 386.078 224.178 385.382 224.637 384.564L234.811 366.497" stroke="#263238" stroke-linecap="round" stroke-linejoin="round"/>
<path d="M285.925 350.703L271.346 384.201C270.95 385.109 270.191 385.898 269.176 386.457C268.162 387.016 266.943 387.316 265.692 387.315H242.974C241.81 387.317 240.672 387.057 239.7 386.568C238.728 386.078 237.965 385.382 237.505 384.564L227.331 366.497" fill="#263238"/>
<path d="M285.925 350.703L271.346 384.201C270.95 385.109 270.191 385.898 269.176 386.457C268.162 387.016 266.943 387.316 265.692 387.315H242.974C241.81 387.317 240.672 387.057 239.7 386.568C238.728 386.078 237.965 385.382 237.505 384.564L227.331 366.497" stroke="#263238" stroke-linecap="round" stroke-linejoin="round"/>
<path d="M334.241 350.703L319.65 384.201C319.254 385.109 318.495 385.898 317.48 386.457C316.466 387.016 315.247 387.316 313.996 387.315H291.255C290.091 387.317 288.953 387.057 287.981 386.568C287.009 386.078 286.246 385.382 285.786 384.564L275.612 366.497" fill="#44B1C0"/>
<path opacity="0.3" d="M323.905 350.703L313.927 384.201C313.372 386.059 311.823 387.315 310.065 387.315H294.515C292.897 387.315 291.428 386.236 290.781 384.564L281.115 366.868" fill="black"/>
<path d="M334.241 350.703L319.65 384.201C319.254 385.109 318.495 385.898 317.48 386.457C316.466 387.016 315.247 387.316 313.996 387.315H291.255C290.091 387.317 288.953 387.057 287.981 386.568C287.009 386.078 286.246 385.382 285.786 384.564L275.612 366.497" stroke="#263238" stroke-linecap="round" stroke-linejoin="round"/>
<path d="M256.27 372.743C325.339 372.743 381.331 333.883 381.331 285.947C381.331 238.011 325.339 199.151 256.27 199.151C187.2 199.151 131.208 238.011 131.208 285.947C131.208 333.883 187.2 372.743 256.27 372.743Z" fill="#44B1C0"/>
<path opacity="0.3" d="M342.403 226.641C349.737 237.771 353.558 250.062 353.56 262.527C353.56 310.464 297.567 349.323 228.499 349.323C202.796 349.423 177.603 343.837 155.95 333.238C177.755 355.632 214.671 370.398 256.536 370.398C323.592 370.398 377.932 332.698 377.932 286.186C377.862 262.908 364.289 241.877 342.403 226.641Z" fill="black"/>
<path d="M256.27 372.743C325.339 372.743 381.331 333.883 381.331 285.947C381.331 238.011 325.339 199.151 256.27 199.151C187.2 199.151 131.208 238.011 131.208 285.947C131.208 333.883 187.2 372.743 256.27 372.743Z" stroke="#263238" stroke-linecap="round" stroke-linejoin="round"/>
<path d="M370.81 293.733C368.081 311.216 357.549 327.08 341.686 339.608" stroke="#44B1C0" stroke-width="2" stroke-linecap="round" stroke-linejoin="round"/>
<path d="M368.74 266.809C370.585 272.665 371.517 278.667 371.515 284.691" stroke="#44B1C0" stroke-width="2" stroke-linecap="round" stroke-linejoin="round"/>
<path d="M225.261 204.566C235.566 202.722 246.115 201.796 256.697 201.805C263.472 201.804 270.239 202.183 276.942 202.938" stroke="#263238" stroke-width="4" stroke-linecap="round" stroke-linejoin="round"/>
<path d="M280.803 265.155C280.803 265.155 292.943 258.846 293.382 247.238C293.821 235.63 273.866 218.713 257.83 211.741C241.794 204.769 230.083 206.105 229.655 211.078C229.227 216.05 223.585 221.695 221.423 231.312C219.261 240.93 218.382 255.201 235.297 259.846" fill="#44B1C0"/>
<path d="M280.803 265.155C280.803 265.155 292.943 258.846 293.382 247.238C293.821 235.63 273.866 218.713 257.83 211.741C241.794 204.769 230.083 206.105 229.655 211.078C229.227 216.05 223.585 221.695 221.423 231.312C219.261 240.93 218.382 255.201 235.297 259.846" stroke="#263238" stroke-linecap="round" stroke-linejoin="round"/>
<path opacity="0.3" d="M254.686 261.43L257.171 261.713C267.831 262.89 271.577 257.564 271.265 249.565C270.837 238.284 251.333 214.395 243.089 211.078C234.846 207.76 232.256 212.405 232.256 212.405C232.256 212.405 233.412 212.997 229.354 223.305C227.481 228.065 220.51 244.664 227.412 252.025C233.516 258.528 244.858 260.306 254.686 261.43Z" fill="black"/>
<path opacity="0.3" d="M289.22 249.999H289.058C288.907 249.983 288.761 249.945 288.629 249.887C288.497 249.828 288.381 249.75 288.289 249.657C288.196 249.564 288.129 249.458 288.09 249.345C288.052 249.232 288.043 249.115 288.064 248.999C288.189 248.319 288.262 247.633 288.283 246.946C288.515 240.753 281.913 231.861 271.057 223.659C270.948 223.577 270.862 223.48 270.802 223.372C270.743 223.265 270.712 223.149 270.711 223.033C270.71 222.916 270.739 222.8 270.796 222.692C270.854 222.584 270.938 222.486 271.045 222.403C271.152 222.32 271.28 222.253 271.42 222.208C271.56 222.163 271.711 222.139 271.864 222.138C272.016 222.137 272.167 222.159 272.309 222.203C272.45 222.247 272.578 222.312 272.687 222.394C284.156 231.065 290.85 240.257 290.596 246.991C290.571 247.742 290.494 248.492 290.365 249.238C290.326 249.449 290.188 249.642 289.978 249.782C289.768 249.922 289.499 249.999 289.22 249.999Z" fill="black"/>
<path opacity="0.3" d="M283 260.669C282.781 260.67 282.567 260.623 282.381 260.534C282.196 260.445 282.047 260.317 281.953 260.166C281.859 260.015 281.822 259.847 281.848 259.68C281.873 259.514 281.96 259.357 282.098 259.227C284.003 257.44 285.525 255.434 286.607 253.281C286.716 253.062 286.934 252.885 287.214 252.788C287.494 252.692 287.812 252.685 288.098 252.768C288.385 252.851 288.617 253.018 288.743 253.232C288.868 253.447 288.878 253.69 288.769 253.909C287.601 256.239 285.954 258.41 283.89 260.342C283.783 260.443 283.647 260.525 283.493 260.582C283.339 260.638 283.171 260.668 283 260.669Z" fill="black"/>
<path opacity="0.3" d="M198.806 302.741C202.225 292.254 190.307 280.947 172.186 277.487C154.064 274.026 136.602 279.723 133.183 290.21C129.764 300.698 141.682 312.004 159.803 315.465C177.924 318.925 195.387 313.228 198.806 302.741Z" fill="black"/>
<path d="M197.179 300.836C200.598 290.349 188.68 279.042 170.559 275.582C152.437 272.122 134.975 277.819 131.556 288.306C128.136 298.793 140.055 310.1 158.176 313.56C176.297 317.02 193.759 311.324 197.179 300.836Z" fill="#44B1C0" stroke="#263238" stroke-linecap="round" stroke-linejoin="round"/>
<path d="M154.158 291.406C154.366 293.777 153.175 295.777 151.51 295.83C149.846 295.883 148.308 294.06 148.042 291.689C147.776 289.318 149.025 287.31 150.701 287.265C152.378 287.221 153.95 289.026 154.158 291.406Z" stroke="#263238" stroke-linecap="round" stroke-linejoin="round"/>
<path d="M177.073 295.803C177.281 298.183 176.09 300.174 174.425 300.227C172.761 300.28 171.223 298.458 170.957 296.078C170.691 293.698 171.94 291.707 173.616 291.654C175.293 291.601 176.83 293.423 177.073 295.803Z" stroke="#263238" stroke-linecap="round" stroke-linejoin="round"/>
<path d="M214.891 301.953C214.647 303.656 214.126 305.329 213.342 306.934C206.705 320.657 182.68 326.593 158.945 320.683" stroke="#263238" stroke-width="3" stroke-linecap="round" stroke-linejoin="round"/>
<path d="M211.018 300.652H218.382" stroke="#263238" stroke-width="3" stroke-linecap="round" stroke-linejoin="round"/>
<path d="M164.101 263.916C163.292 266.491 161.222 268.34 159.476 268.004C157.731 267.668 156.968 265.349 157.788 262.748C158.609 260.147 160.667 258.324 162.413 258.652C164.159 258.979 164.922 261.333 164.101 263.916Z" fill="#263238" stroke="#263238" stroke-linecap="round" stroke-linejoin="round"/>
<path d="M185.423 267.473C186.237 264.889 185.483 262.533 183.738 262.212C181.994 261.89 179.92 263.724 179.106 266.308C178.292 268.893 179.047 271.248 180.791 271.57C182.535 271.892 184.609 270.058 185.423 267.473Z" fill="#263238" stroke="#263238" stroke-linecap="round" stroke-linejoin="round"/>
<path d="M217.261 361.48L229.979 384.573C230.435 385.398 231.199 386.103 232.176 386.599C233.153 387.095 234.298 387.359 235.47 387.36H258.593C259.755 387.358 260.89 387.098 261.861 386.611C262.832 386.124 263.597 385.431 264.062 384.617L277.936 360.082H277.335" fill="#44B1C0"/>
<path opacity="0.3" d="M244.13 358.534C236.8 358.534 228.268 359.268 221.365 358.047L233.251 384.528C233.534 385.297 234.124 385.98 234.938 386.479C235.753 386.979 236.752 387.271 237.794 387.315H256.848C257.878 387.272 258.865 386.984 259.672 386.493C260.48 386.002 261.069 385.331 261.357 384.573L272.86 357.56L268.236 358.047C253.564 359.268 253.946 358.534 244.13 358.534Z" fill="black"/>
<path d="M217.261 361.48L229.979 384.573C230.435 385.398 231.199 386.103 232.176 386.599C233.153 387.095 234.298 387.359 235.47 387.36H258.593C259.755 387.358 260.89 387.098 261.861 386.611C262.832 386.124 263.597 385.431 264.062 384.617L277.936 360.082H277.335" stroke="#263238" stroke-linecap="round" stroke-linejoin="round"/>
<path d="M447.613 1.76707L383.666 72.2745C383.666 72.2745 378.198 82.2548 371.469 89.6603C364.74 97.0659 345.872 104.471 345.872 104.471C345.872 104.471 344.195 118.309 338.727 123.14C333.258 127.971 321.477 125.078 321.477 125.078C321.477 125.078 316.424 129.263 310.956 131.192C305.487 133.12 288.665 126.042 288.665 126.042C288.665 126.042 303.799 138.597 305.903 142.782C308.008 146.967 311.8 150.506 305.071 154.373C298.342 158.239 290.758 152.762 290.758 152.762C290.758 152.762 294.134 161.132 284.457 162.742C274.78 164.353 264.236 148.25 260.027 142.782C255.819 137.314 243.621 116.699 241.529 115.735C239.436 114.77 236.488 109.621 240.696 104.79C244.905 99.9591 274.757 69.054 278.121 66.8509C281.485 64.6478 345.872 52.96 345.872 52.96L370.278 1.44855" fill="white"/>
<path opacity="0.2" d="M377.088 73.0443C377.088 73.0443 370.151 88.9702 362.636 92.0669C355.121 95.1636 312.343 103.569 295.579 101.799C278.815 100.03 269.565 95.1636 269.565 95.1636C269.565 95.1636 260.316 104.454 256.27 107.55C253.452 109.553 250.099 111.063 246.442 111.974C246.442 111.974 266.559 150.648 281.023 162.619C282.147 162.884 283.34 162.927 284.491 162.742C294.168 161.132 290.792 152.762 290.792 152.762C290.792 152.762 298.365 158.23 305.106 154.373C311.846 150.515 308.042 146.967 305.938 142.782C303.834 138.597 288.642 126.042 288.642 126.042C288.642 126.042 305.464 133.12 310.933 131.192C316.401 129.263 321.454 125.069 321.454 125.069C321.454 125.069 333.235 127.971 338.703 123.14C344.172 118.309 345.848 104.471 345.848 104.471C345.848 104.471 364.775 97.0658 371.515 89.6603C378.255 82.2548 383.713 72.2745 383.713 72.2745L410.061 43.2275L377.088 73.0443Z" fill="black"/>
<path d="M447.613 1.76707L383.666 72.2745C383.666 72.2745 378.198 82.2548 371.469 89.6603C364.74 97.0659 345.872 104.471 345.872 104.471C345.872 104.471 344.195 118.309 338.727 123.14C333.258 127.971 321.477 125.078 321.477 125.078C321.477 125.078 316.424 129.263 310.956 131.192C305.487 133.12 288.665 126.042 288.665 126.042C288.665 126.042 303.799 138.597 305.903 142.782C308.008 146.967 311.8 150.506 305.071 154.373C298.342 158.239 290.758 152.762 290.758 152.762C290.758 152.762 294.134 161.132 284.457 162.742C274.78 164.353 264.236 148.25 260.027 142.782C255.819 137.314 243.621 116.699 241.529 115.735C239.436 114.77 236.488 109.621 240.696 104.79C244.905 99.9591 274.757 69.054 278.121 66.8509C281.485 64.6478 345.872 52.96 345.872 52.96L370.278 1.44855" stroke="#263238" stroke-linecap="round" stroke-linejoin="round"/>
<path d="M228.904 189.781L230.58 194.612L256.663 189.781L281.069 140.844L265.08 136.659L228.904 189.781Z" fill="white" stroke="#263238" stroke-linecap="round" stroke-linejoin="round"/>
<path d="M236.892 124.75L273.068 135.058L255.402 196.222L212.914 186.242L236.892 124.75Z" fill="white" stroke="#263238" stroke-linecap="round" stroke-linejoin="round"/>
<path d="M214.336 182.588L252.038 191.073L268.444 136.659L235.413 128.537L214.336 182.588Z" fill="#44B1C0" stroke="#263238" stroke-linecap="round" stroke-linejoin="round"/>
<path d="M266.756 92.5535C266.756 92.5535 271.808 98.3488 272.652 103.507C273.369 107.904 272.026 112.352 268.86 116.062C266.34 118.955 263.819 121.53 261.715 126.042C259.611 130.554 259.195 136.987 256.247 140.198C253.298 143.41 251.622 146.631 255.819 149.533C260.016 152.435 270.964 152.108 276.861 143.738C282.757 135.368 286.538 126.352 290.318 123.131C294.099 119.911 306.308 112.514 306.308 112.514C306.308 112.514 339.536 108.975 345.849 104.471C352.161 99.9679 357.63 87.7315 357.63 87.7315" fill="white"/>
<path opacity="0.2" d="M355.121 92.0669C355.121 92.0669 337.2 100.915 323.327 103.569C309.453 106.223 300.782 106.223 295.579 111.532C290.376 116.841 285.174 133.651 278.237 136.748C271.3 139.845 270.144 128.785 260.316 130.997L259.992 131.085C259.033 134.536 258.189 138.075 256.247 140.207C253.298 143.428 251.622 146.64 255.819 149.542C260.016 152.444 270.964 152.116 276.861 143.746C282.757 135.376 286.538 126.361 290.318 123.14C294.099 119.92 306.308 112.523 306.308 112.523C306.308 112.523 339.536 108.984 345.849 104.48C349.664 101.755 353.167 96.2165 355.341 92.2527L355.121 92.0669Z" fill="black"/>
<path d="M266.756 92.5535C266.756 92.5535 271.808 98.3488 272.652 103.507C273.369 107.904 272.026 112.352 268.86 116.062C266.34 118.955 263.819 121.53 261.715 126.042C259.611 130.554 259.195 136.987 256.247 140.198C253.298 143.41 251.622 146.631 255.819 149.533C260.016 152.435 270.964 152.108 276.861 143.738C282.757 135.368 286.538 126.352 290.318 123.131C294.099 119.911 306.308 112.514 306.308 112.514C306.308 112.514 339.536 108.975 345.849 104.471C352.161 99.9679 357.63 87.7315 357.63 87.7315" stroke="#263238" stroke-linecap="round" stroke-linejoin="round"/>
<path d="M253.715 108.656C253.715 108.656 264.663 113.16 272.652 108.01" stroke="#263238" stroke-linecap="round" stroke-linejoin="round"/>
<path d="M290.735 152.762L281.069 138.597" stroke="#263238" stroke-linecap="round" stroke-linejoin="round"/>
<path d="M321.454 125.078C321.454 125.078 329.026 120.247 328.599 109.621" stroke="#263238" stroke-linecap="round" stroke-linejoin="round"/>
<path d="M91.5176 387.315H549.355" stroke="#263238" stroke-linecap="round" stroke-linejoin="round"/>
<path d="M51.0522 387.315H71.863" stroke="#263238" stroke-linecap="round" stroke-linejoin="round"/>
<path d="M244.03 160.513C246.497 156.489 244.558 151.181 239.699 148.659C234.84 146.136 228.901 147.353 226.433 151.378C223.966 155.402 225.905 160.71 230.764 163.233C235.623 165.755 241.563 164.538 244.03 160.513Z" fill="white" stroke="#263238" stroke-linecap="round" stroke-linejoin="round"/>
<path d="M240.307 158.639C240.202 158.702 240.096 158.768 239.989 158.83C237.959 160.009 235.213 160.807 233.499 160.549L233.507 160.527C232.068 159.678 230.538 157.452 229.75 155.334C229.705 155.218 229.665 155.101 229.627 154.987C228.907 152.844 228.997 150.894 230.769 150.702C234.369 150.313 235.817 154.391 235.817 154.391C235.817 154.391 239.631 152.202 242.121 154.744C243.316 155.962 242.185 157.462 240.307 158.639Z" fill="#44B1C0" stroke="#263238" stroke-miterlimit="10"/>
<path d="M240.402 158.639C240.298 158.7 240.193 158.763 240.086 158.822L239.312 158.548L238.059 159.209L238.545 156.105L236.869 157.74L234.657 156.957L232.933 158.129L233.258 154.635L231.506 155.898L229.8 155.294C229.754 155.18 229.713 155.065 229.673 154.954L231.423 155.574L233.651 153.967L233.322 157.489L234.591 156.627L236.774 157.4L239.024 155.179L238.483 158.629L239.255 158.221L240.402 158.639Z" fill="white"/>
<path d="M386.076 151.991C394.336 144.478 394.059 131.546 385.456 123.107C376.854 114.668 363.184 113.918 354.924 121.431C346.664 128.945 346.941 141.877 355.544 150.315C364.146 158.754 377.816 159.505 386.076 151.991Z" fill="white" stroke="#263238" stroke-linecap="round" stroke-linejoin="round"/>
<path d="M376.367 147.345C381.124 145.086 382.123 138.4 378.598 132.41C375.074 126.421 368.36 123.397 363.604 125.655C358.847 127.914 357.848 134.601 361.373 140.59C364.897 146.579 371.61 149.603 376.367 147.345Z" fill="#44B1C0" stroke="#263238" stroke-linecap="round" stroke-linejoin="round"/>
<path d="M377.972 146.567C382.434 144.448 383.194 137.875 379.67 131.886C376.145 125.897 369.671 122.759 365.209 124.878C360.746 126.997 359.986 133.57 363.511 139.559C367.035 145.548 373.51 148.686 377.972 146.567Z" fill="#44B1C0" stroke="#263238" stroke-linecap="round" stroke-linejoin="round"/>
<path d="M378.226 133.207L365.521 136.647" stroke="#263238" stroke-linecap="round" stroke-linejoin="round"/>
<path d="M363.406 156.589C364.192 157.319 364.908 158.113 365.547 158.96" stroke="white" stroke-linecap="round" stroke-linejoin="round"/>
<path d="M363.732 132.565C363.732 132.565 362.919 126.953 368.533 126.174C369.797 126.035 371.107 126.291 372.268 126.904" stroke="white" stroke-linecap="round" stroke-linejoin="round"/>
<path d="M195.25 78.7762C203.948 71.6807 203.948 60.1766 195.25 53.0811C186.552 45.9856 172.448 45.9856 163.75 53.0811C155.052 60.1766 155.052 71.6807 163.75 78.7762C172.448 85.8717 186.552 85.8717 195.25 78.7762Z" fill="white" stroke="#263238" stroke-linecap="round" stroke-linejoin="round"/>
<path d="M198.027 63.1446C198.027 64.3609 197.559 65.5465 196.69 66.5347C195.821 67.5229 194.594 68.2641 193.181 68.6539L183.232 71.3874L171.122 74.7244C169.338 75.2028 167.395 75.0866 165.715 74.4012C164.036 73.7159 162.757 72.5168 162.157 71.0654C161.556 69.614 161.684 68.0279 162.511 66.6527C163.338 65.2775 164.798 64.2248 166.573 63.7239L177.573 60.7068L188.625 57.6897C189.694 57.3963 190.833 57.3143 191.949 57.4503C193.064 57.5864 194.125 57.9366 195.042 58.4721C195.959 59.0077 196.707 59.7133 197.225 60.5309C197.743 61.3485 198.015 62.2546 198.019 63.1748L198.027 63.1446Z" fill="white"/>
<path d="M198.027 63.1446C198.027 64.3609 197.559 65.5465 196.69 66.5347C195.821 67.5229 194.594 68.2641 193.181 68.6539L183.232 71.3875C182.966 67.389 180.96 63.5993 177.573 60.7008L188.625 57.6836C189.694 57.3903 190.833 57.3082 191.949 57.4443C193.064 57.5803 194.125 57.9305 195.042 58.4661C195.959 59.0017 196.707 59.7073 197.225 60.5249C197.743 61.3424 198.015 62.2486 198.019 63.1688L198.027 63.1446Z" fill="#44B1C0"/>
<path d="M198.114 63.1894C198.114 64.4056 197.646 65.5912 196.777 66.5794C195.908 67.5677 194.681 68.3088 193.269 68.6987L183.319 71.4322L171.209 74.7691C169.425 75.2475 167.482 75.1314 165.803 74.446C164.123 73.7606 162.844 72.5616 162.244 71.1101C161.643 69.6587 161.771 68.0726 162.598 66.6974C163.425 65.3223 164.885 64.2696 166.66 63.7687L177.66 60.7516L188.712 57.7344C189.781 57.4411 190.92 57.359 192.036 57.4951C193.152 57.6311 194.212 57.9813 195.129 58.5169C196.046 59.0524 196.795 59.7581 197.312 60.5756C197.83 61.3932 198.102 62.2994 198.106 63.2196L198.114 63.1894Z" stroke="#263238" stroke-linecap="round" stroke-linejoin="round"/>
<path d="M183.232 71.3874C183.005 67.3816 180.993 63.5812 177.573 60.7008" stroke="#263238" stroke-linecap="round" stroke-linejoin="round"/>
<path d="M195.645 60.9784C196.112 61.6201 196.348 62.3563 196.325 63.1024" stroke="white" stroke-linecap="round" stroke-linejoin="round"/>
<path d="M180.384 61.5818L189.261 59.1681C190.057 58.9453 190.904 58.8693 191.74 58.9455C192.577 59.0217 193.382 59.2481 194.099 59.6086" stroke="white" stroke-linecap="round" stroke-linejoin="round"/>
<path d="M349.145 264.328L337.902 264.835L337.457 255.573L321.608 256.288L322.053 265.55L309.787 266.103L310.386 278.584L322.651 278.031L323.095 287.283L338.944 286.568L338.501 277.316L349.744 276.809L349.145 264.328Z" fill="white"/>
<path d="M39 280.701C59.9868 280.701 77 264.204 77 243.855C77 223.506 59.9868 207.009 39 207.009C18.0132 207.009 1 223.506 1 243.855C1 264.204 18.0132 280.701 39 280.701Z" fill="white" stroke="#263238" stroke-linecap="round" stroke-linejoin="round"/>
<path d="M36.1478 226.821C36.5138 227.616 34.2295 229.379 31.0996 230.761C27.9698 232.144 25.0418 232.621 24.6758 231.814C24.3098 231.006 26.5815 229.256 29.724 227.873C32.8665 226.491 35.7692 226.062 36.1478 226.821Z" fill="white" stroke="#263238" stroke-linecap="round" stroke-linejoin="round"/>
<path d="M53.2484 260.999L41.8774 266.334L31.6802 245.972L24.638 231.899L36.009 226.552L42.8745 240.282L53.2484 260.999Z" fill="white" stroke="#263238" stroke-linecap="round" stroke-linejoin="round"/>
<path d="M28.8911 240.527L33.8256 238.312L28.8911 240.527Z" fill="#44B1C0"/>
<path d="M28.8911 240.527L33.8256 238.312" stroke="#263238" stroke-linecap="round" stroke-linejoin="round"/>
<path d="M46.2314 264.291L52.0999 271.755L49.172 262.908L46.2314 264.291Z" fill="white" stroke="#263238" stroke-linecap="round" stroke-linejoin="round"/>
<path d="M53.2484 260.999C50.5863 263.583 47.1896 265.339 43.4928 266.041L41.8774 266.334L31.6802 245.972L42.8745 240.282L53.2484 260.999Z" fill="#44B1C0" stroke="#263238" stroke-miterlimit="10"/>
<path d="M33.8257 249.839L38.47 247.759" stroke="#263238" stroke-linecap="round" stroke-linejoin="round"/>
<path d="M36.375 254.575L40.9309 252.555L36.375 254.575Z" fill="#44B1C0"/>
<path d="M36.375 254.575L40.9309 252.555" stroke="#263238" stroke-linecap="round" stroke-linejoin="round"/>
<path d="M34.7469 219.687L33.8887 217.851L18.7443 224.422L19.6024 226.258C19.9558 227.041 23.6284 226.185 27.8183 224.374C32.0083 222.562 35.1003 220.458 34.7469 219.687Z" fill="white" stroke="#263238" stroke-linecap="round" stroke-linejoin="round"/>
<path d="M33.8887 217.851C33.5354 217.08 29.8502 217.925 25.6728 219.736C21.4955 221.547 18.3909 223.652 18.7443 224.423C19.0976 225.193 22.7828 224.349 26.9601 222.526C31.1375 220.702 34.2421 218.622 33.8887 217.851Z" fill="white" stroke="#263238" stroke-linecap="round" stroke-linejoin="round"/>
</svg>
