<svg width="211" height="155" viewBox="0 0 211 155" fill="none" xmlns="http://www.w3.org/2000/svg">
<path d="M211 154.078C211 154.128 163.764 154.171 105.506 154.171C47.2485 154.171 0 154.114 0 154.078C0 154.042 47.2258 153.985 105.506 153.985C163.787 153.985 211 154.024 211 154.078Z" fill="#263238"/>
<path d="M117.812 82.3669H78.8124V154.045H117.812V82.3669Z" fill="#455A64"/>
<g opacity="0.3">
<path opacity="0.3" d="M117.812 82.3669H78.8124V154.045H117.812V82.3669Z" fill="black"/>
</g>
<path d="M125.905 82.3669H86.9059V154.045H125.905V82.3669Z" fill="#455A64"/>
<path d="M86.7859 117.513C86.8151 117.556 85.072 119.103 82.8979 120.969C80.7239 122.834 78.9322 124.318 78.9031 124.278C78.8739 124.239 80.617 122.691 82.791 120.822C84.965 118.953 86.7567 117.474 86.7859 117.513Z" fill="#455A64"/>
<path d="M86.7859 113.474C86.8151 113.514 85.072 115.061 82.8979 116.927C80.7239 118.792 78.9322 120.279 78.9031 120.236C78.8739 120.193 80.617 118.649 82.791 116.78C84.965 114.911 86.7567 113.431 86.7859 113.474Z" fill="#455A64"/>
<path d="M86.7859 109.439C86.8151 109.479 85.072 111.026 82.898 112.895C80.7239 114.764 78.9323 116.23 78.8999 116.198C78.8675 116.165 80.6138 114.611 82.7878 112.742C84.9618 110.873 86.7567 109.393 86.7859 109.439Z" fill="#455A64"/>
<path d="M86.7859 105.39C86.8151 105.433 85.072 106.98 82.898 108.846C80.7239 110.712 78.9323 112.195 78.8999 112.155C78.8675 112.116 80.6138 110.569 82.7878 108.699C84.9618 106.83 86.7567 105.351 86.7859 105.39Z" fill="#455A64"/>
<path d="M86.7859 101.352C86.8151 101.391 85.072 102.938 82.8979 104.808C80.7239 106.677 78.9322 108.156 78.9031 108.113C78.8739 108.07 80.617 106.527 82.791 104.657C84.965 102.788 86.7567 101.309 86.7859 101.352Z" fill="#455A64"/>
<path d="M86.7859 97.3096C86.8151 97.3489 85.072 98.8964 82.898 100.766C80.7239 102.635 78.9323 104.114 78.8999 104.079C78.8675 104.043 80.6138 102.492 82.7878 100.623C84.9618 98.7534 86.7567 97.2881 86.7859 97.3096Z" fill="#455A64"/>
<path d="M86.7859 93.2674C86.8151 93.3103 85.072 94.8577 82.8979 96.7233C80.7239 98.5889 78.9322 100.072 78.9031 100.033C78.8739 99.9934 80.617 98.4459 82.791 96.5768C84.965 94.7076 86.7567 93.2281 86.7859 93.2674Z" fill="#455A64"/>
<path d="M86.7859 89.2289C86.8151 89.2682 85.072 90.8157 82.8979 92.6849C80.7239 94.554 78.9322 96.0336 78.9031 95.9907C78.8739 95.9478 80.617 94.4039 82.791 92.5348C84.965 90.6656 86.7567 89.1861 86.7859 89.2289Z" fill="#455A64"/>
<path d="M86.7859 85.1868C86.8151 85.2261 85.072 86.7736 82.8979 88.6428C80.7239 90.5119 78.9322 91.9916 78.9031 91.9522C78.8739 91.9129 80.617 90.3654 82.791 88.4962C84.965 86.6271 86.7567 85.1367 86.7859 85.1868Z" fill="#455A64"/>
<path d="M85.1853 82.5167C85.2145 82.5596 83.8311 83.7998 82.0944 85.2866C80.3578 86.7733 78.929 87.9528 78.8999 87.9099C78.8707 87.867 80.2542 86.6304 81.9908 85.14C83.7274 83.6497 85.1562 82.4774 85.1853 82.5167Z" fill="#455A64"/>
<path d="M80.5521 82.4428C80.3328 82.7491 80.0703 83.0146 79.7746 83.2291C79.5135 83.4944 79.2147 83.7105 78.8901 83.8689C79.3723 83.2985 79.9332 82.816 80.5521 82.4392V82.4428Z" fill="#455A64"/>
<path d="M78.8804 129.407C78.8512 129.364 80.5943 127.816 82.7683 125.951C84.9423 124.085 86.734 122.599 86.76 122.641C86.7859 122.684 85.0493 124.228 82.872 126.097C80.6947 127.967 78.9095 129.453 78.8804 129.407Z" fill="#455A64"/>
<path d="M79.1202 134.518C79.0942 134.478 80.8341 132.931 83.0081 131.062C85.1821 129.192 86.9738 127.713 87.0029 127.752C87.0321 127.792 85.289 129.339 83.115 131.208C80.941 133.077 79.1493 134.557 79.1202 134.518Z" fill="#455A64"/>
<path d="M78.8998 139.21C78.8706 139.171 80.6137 137.623 82.7878 135.754C84.9618 133.885 86.7536 132.405 86.7827 132.445C86.8119 132.484 85.0688 134.035 82.8947 135.901C80.7207 137.766 78.9322 139.253 78.8998 139.21Z" fill="#455A64"/>
<path d="M78.8998 143.252C78.8706 143.213 80.6137 141.665 82.7878 139.796C84.9618 137.927 86.7536 136.447 86.7827 136.487C86.8119 136.526 85.0688 138.074 82.8947 139.943C80.7207 141.812 78.9322 143.291 78.8998 143.252Z" fill="#455A64"/>
<path d="M78.8998 147.294C78.8706 147.251 80.6137 145.704 82.7878 143.838C84.9618 141.973 86.7536 140.486 86.7827 140.529C86.8119 140.572 85.0688 142.116 82.8947 143.985C80.7207 145.854 78.9322 147.323 78.8998 147.294Z" fill="#455A64"/>
<path d="M78.8998 151.333C78.8706 151.294 80.6137 149.746 82.7878 147.877C84.9618 146.008 86.7536 144.528 86.7827 144.567C86.8119 144.607 85.0688 146.158 82.8947 148.023C80.7207 149.889 78.9322 151.376 78.8998 151.333Z" fill="#455A64"/>
<path d="M80.5003 154.003C80.4712 153.96 81.8547 152.72 83.5913 151.233C85.3279 149.746 86.7568 148.57 86.7859 148.609C86.8151 148.649 85.4316 149.889 83.695 151.379C81.9583 152.87 80.5295 154.042 80.5003 154.003Z" fill="#455A64"/>
<path d="M85.1238 154.077C85.6042 153.505 86.1655 153.022 86.7859 152.648C86.5649 152.954 86.3013 153.219 86.0051 153.434C85.7425 153.697 85.4454 153.913 85.1238 154.077Z" fill="#455A64"/>
<path d="M171.751 103.346H137.394V154.031H171.751V103.346Z" fill="#455A64"/>
<g opacity="0.3">
<path opacity="0.3" d="M171.751 103.346H137.394V154.031H171.751V103.346Z" fill="black"/>
</g>
<path d="M178.639 103.346H144.282V154.031H178.639V103.346Z" fill="#455A64"/>
<path d="M144.282 134.257C144.312 134.296 142.789 135.654 140.884 137.291C138.979 138.928 137.41 140.218 137.381 140.179C137.352 140.139 138.875 138.778 140.78 137.144C142.685 135.511 144.253 134.214 144.282 134.257Z" fill="#455A64"/>
<path d="M144.282 130.718C144.312 130.758 142.789 132.119 140.884 133.753C138.979 135.386 137.41 136.68 137.381 136.64C137.352 136.601 138.875 135.239 140.78 133.606C142.685 131.973 144.253 130.679 144.282 130.718Z" fill="#455A64"/>
<path d="M144.282 127.18C144.312 127.223 142.789 128.581 140.884 130.214C138.979 131.848 137.41 133.145 137.381 133.102C137.352 133.059 138.875 131.705 140.78 130.068C142.685 128.431 144.253 127.141 144.282 127.18Z" fill="#455A64"/>
<path d="M144.282 123.646C144.312 123.685 142.789 125.043 140.884 126.68C138.979 128.317 137.41 129.607 137.381 129.568C137.352 129.528 138.875 128.167 140.78 126.533C142.685 124.9 144.253 123.603 144.282 123.646Z" fill="#455A64"/>
<path d="M144.282 120.108C144.312 120.147 142.789 121.509 140.884 123.142C138.979 124.775 137.41 126.069 137.381 126.03C137.352 125.99 138.875 124.632 140.78 122.995C142.685 121.358 144.253 120.068 144.282 120.108Z" fill="#455A64"/>
<path d="M144.282 116.587C144.312 116.63 142.789 117.988 140.884 119.621C138.979 121.255 137.41 122.552 137.381 122.509C137.352 122.466 138.875 121.112 140.78 119.475C142.685 117.838 144.253 116.53 144.282 116.587Z" fill="#455A64"/>
<path d="M144.282 113.035C144.312 113.074 142.789 114.432 140.884 116.069C138.979 117.706 137.41 118.996 137.381 118.957C137.352 118.917 138.875 117.556 140.78 115.922C142.685 114.289 144.253 112.992 144.282 113.035Z" fill="#455A64"/>
<path d="M144.282 109.497C144.312 109.539 142.789 110.898 140.884 112.531C138.979 114.164 137.41 115.458 137.381 115.419C137.352 115.379 138.875 114.021 140.78 112.384C142.685 110.747 144.253 109.457 144.282 109.497Z" fill="#455A64"/>
<path d="M144.282 105.962C144.312 106.001 142.789 107.359 140.884 108.993C138.979 110.626 137.41 111.923 137.381 111.88C137.352 111.837 138.875 110.483 140.78 108.846C142.685 107.209 144.253 105.919 144.282 105.962Z" fill="#455A64"/>
<path d="M142.883 103.625C142.912 103.664 141.703 104.754 140.184 106.058C138.664 107.363 137.411 108.385 137.381 108.346C137.352 108.306 138.561 107.216 140.08 105.912C141.6 104.607 142.854 103.585 142.883 103.625Z" fill="#455A64"/>
<path d="M138.836 103.56C138.865 103.6 138.564 103.918 138.162 104.257C137.932 104.484 137.668 104.665 137.381 104.793C137.352 104.754 137.657 104.436 138.058 104.078C138.287 103.855 138.55 103.679 138.836 103.56Z" fill="#455A64"/>
<path d="M144.282 148.156C144.312 148.195 142.789 149.553 140.884 151.19C138.979 152.827 137.41 154.113 137.381 154.078C137.352 154.042 138.875 152.677 140.78 151.043C142.685 149.41 144.253 148.116 144.282 148.156Z" fill="#455A64"/>
<path d="M144.282 144.617C144.312 144.66 142.789 146.018 140.884 147.652C138.979 149.285 137.41 150.579 137.381 150.539C137.352 150.5 138.875 149.142 140.78 147.505C142.685 145.868 144.253 144.578 144.282 144.617Z" fill="#455A64"/>
<path d="M144.282 141.083C144.312 141.122 142.789 142.48 140.884 144.117C138.979 145.754 137.41 147.044 137.381 147.001C137.352 146.958 138.875 145.604 140.78 143.967C142.685 142.33 144.253 141.04 144.282 141.083Z" fill="#455A64"/>
<path d="M144.282 137.545C144.312 137.584 142.789 138.942 140.884 140.579C138.979 142.216 137.41 143.506 137.381 143.467C137.352 143.427 138.875 142.066 140.78 140.432C142.685 138.799 144.253 137.505 144.282 137.545Z" fill="#455A64"/>
<path d="M63.8047 119.564H26.9695V154.078H63.8047V119.564Z" fill="#455A64"/>
<g opacity="0.3">
<path opacity="0.3" d="M63.8047 119.564H26.9695V154.078H63.8047V119.564Z" fill="black"/>
</g>
<path d="M70.4337 119.564H33.5985V154.078H70.4337V119.564Z" fill="#455A64"/>
<path d="M33.4754 148.495C33.5013 148.538 32.0692 149.818 30.2742 151.354C28.4793 152.891 26.9986 154.11 26.9694 154.07C26.9403 154.031 28.3724 152.748 30.1706 151.211C31.9688 149.675 33.4462 148.456 33.4754 148.495Z" fill="#455A64"/>
<path d="M33.4754 145.179C33.5013 145.221 32.0692 146.504 30.2742 148.038C28.4793 149.571 26.9986 150.793 26.9694 150.754C26.9403 150.715 28.3724 149.431 30.1706 147.895C31.9688 146.358 33.4462 145.121 33.4754 145.179Z" fill="#455A64"/>
<path d="M33.4754 141.83C33.5013 141.869 32.0692 143.152 30.2742 144.689C28.4793 146.226 26.9986 147.448 26.9694 147.405C26.9403 147.362 28.3724 146.083 30.1706 144.546C31.9688 143.009 33.4462 141.787 33.4754 141.83Z" fill="#455A64"/>
<path d="M33.4754 138.495C33.5013 138.535 32.0692 139.818 30.2742 141.354C28.4793 142.891 26.9986 144.114 26.9694 144.074C26.9403 144.035 28.3724 142.748 30.1706 141.215C31.9688 139.682 33.4462 138.456 33.4754 138.495Z" fill="#455A64"/>
<path d="M33.4754 135.172C33.5013 135.214 32.0692 136.494 30.2742 138.031C28.4793 139.567 26.9986 140.786 26.9694 140.747C26.9403 140.708 28.3724 139.425 30.1706 137.888C31.9688 136.351 33.4462 135.121 33.4754 135.172Z" fill="#455A64"/>
<path d="M33.4754 131.83C33.5013 131.869 32.0692 133.152 30.2742 134.689C28.4793 136.226 26.9986 137.445 26.9694 137.405C26.9403 137.366 28.3724 136.083 30.1706 134.546C31.9688 133.009 33.4462 131.787 33.4754 131.83Z" fill="#455A64"/>
<path d="M33.4754 128.495C33.5013 128.535 32.0692 129.818 30.2742 131.355C28.4793 132.891 26.9986 134.114 26.9694 134.071C26.9403 134.028 28.3724 132.748 30.1706 131.212C31.9688 129.675 33.4462 128.453 33.4754 128.495Z" fill="#455A64"/>
<path d="M33.4754 125.165C33.5013 125.204 32.0692 126.487 30.2742 128.024C28.4793 129.56 26.9986 130.783 26.9694 130.743C26.9403 130.704 28.3724 129.421 30.1706 127.884C31.9688 126.348 33.4462 125.122 33.4754 125.165Z" fill="#455A64"/>
<path d="M33.4754 121.827C33.5013 121.869 32.0692 123.149 30.2742 124.686C28.4793 126.222 26.9986 127.441 26.9694 127.402C26.9403 127.362 28.3724 126.079 30.1706 124.543C31.9688 123.006 33.4462 121.787 33.4754 121.827Z" fill="#455A64"/>
<path d="M32.1534 119.625C31.3446 120.44 30.4967 121.208 29.6133 121.923C28.7656 122.687 27.8832 123.403 26.9695 124.067C27.7803 123.254 28.6281 122.487 29.5096 121.769C30.9417 120.551 32.1243 119.586 32.1534 119.625Z" fill="#455A64"/>
<path d="M28.3401 119.564C28.3693 119.604 28.0874 119.9 27.7083 120.225C27.4946 120.448 27.2437 120.623 26.9696 120.74C26.9404 120.701 27.2255 120.404 27.6176 120.079C27.8273 119.859 28.0723 119.685 28.3401 119.564Z" fill="#455A64"/>
<g opacity="0.3">
<path opacity="0.3" d="M119.591 79.3292C119.283 79.2238 118.957 79.2041 118.641 79.272C108.74 80.4836 97.7727 81.3056 87.8616 82.5171V82.6351C94.2199 84.6514 100.836 85.4967 107.444 85.1368C108.063 85.1046 108.769 85.0975 109.19 85.6014C109.612 86.1053 109.514 87.0095 109.375 87.7457C107.982 94.4289 106.59 101.111 105.199 107.792C104.982 108.842 104.829 110.133 105.575 110.826C106.605 111.787 108.121 110.647 108.989 109.511C114.886 101.795 117.562 91.7807 120.086 82.0811C120.352 81.0983 120.459 79.7223 119.591 79.3292Z" fill="black"/>
</g>
<path d="M132.227 76.0697C131.192 75.0941 129.852 74.6063 128.494 74.7116L126.226 82.7136C127.898 82.7922 129.567 83.7464 131.18 83.2568C131.827 83.0372 132.403 82.6173 132.839 82.0471C133.276 81.4768 133.554 80.7803 133.642 80.0403C133.711 79.3018 133.618 78.5559 133.372 77.8651C133.126 77.1743 132.733 76.5586 132.227 76.0697Z" fill="#44B1C0"/>
<path d="M128.536 74.5258C128.536 74.4614 128.782 74.4114 129.226 74.415C129.865 74.4264 130.497 74.5582 131.096 74.8045C132.007 75.1984 132.794 75.8749 133.364 76.7523C133.712 77.2728 133.97 77.8607 134.122 78.4857C134.286 79.171 134.305 79.8889 134.177 80.5835C134.051 81.2879 133.766 81.9457 133.348 82.4956C132.951 83.0016 132.445 83.3889 131.877 83.6214C130.956 83.9824 129.961 84.053 129.006 83.8251C128.392 83.6905 127.793 83.4857 127.218 83.2139C126.813 83.021 126.602 82.8816 126.621 82.8172C126.641 82.7529 126.884 82.7708 127.311 82.8494C127.739 82.928 128.348 83.071 129.093 83.146C129.934 83.2568 130.786 83.1339 131.572 82.7886C132.004 82.5892 132.387 82.2778 132.687 81.8809C133.004 81.4474 133.22 80.9343 133.315 80.387C133.408 79.8502 133.402 79.2985 133.299 78.7641C133.196 78.2296 132.998 77.7231 132.716 77.2741C132.249 76.4965 131.609 75.865 130.856 75.4407C130.323 75.1629 129.765 74.9484 129.191 74.801C128.766 74.6723 128.53 74.5937 128.536 74.5258Z" fill="#E0E0E0"/>
<path d="M107.868 103.943L103.271 118.153L119.273 124.557C119.733 122.831 112.566 116.137 112.566 116.137L115.868 107.163L107.868 103.943Z" fill="#44B1C0"/>
<g opacity="0.6">
<path opacity="0.6" d="M107.872 113.392C107.701 113.382 107.533 113.441 107.399 113.559C107.266 113.677 107.177 113.846 107.149 114.032C107.134 114.22 107.185 114.407 107.291 114.555C107.397 114.704 107.55 114.801 107.719 114.829C107.901 114.839 108.079 114.775 108.22 114.648C108.361 114.521 108.454 114.341 108.481 114.143C108.481 113.767 108.157 113.335 107.804 113.389" fill="white"/>
</g>
<path d="M103.271 118.153L103.734 116.723L118.933 123.41C118.933 123.41 119.536 124.039 119.273 124.561L103.271 118.153Z" fill="#F5F5F5"/>
<path d="M112.855 116.151C112.826 116.233 112.421 116.119 111.948 116.24C111.474 116.362 111.147 116.644 111.086 116.598C111.024 116.551 111.306 116.087 111.883 115.947C112.459 115.808 112.9 116.076 112.855 116.151Z" fill="#263238"/>
<path d="M114.284 117.588C114.284 117.677 113.885 117.688 113.503 117.945C113.12 118.203 112.913 118.56 112.835 118.524C112.758 118.489 112.871 117.985 113.354 117.67C113.836 117.356 114.309 117.502 114.284 117.588Z" fill="#263238"/>
<path d="M114.507 120.182C114.429 120.182 114.462 119.7 114.831 119.307C115.2 118.914 115.615 118.874 115.625 118.949C115.635 119.025 115.324 119.196 115.038 119.521C114.753 119.847 114.588 120.208 114.507 120.182Z" fill="#263238"/>
<path d="M113.399 114.014C113.341 114.078 113.02 113.817 112.57 113.657C112.119 113.496 111.721 113.532 111.705 113.439C111.688 113.346 112.119 113.174 112.651 113.353C113.182 113.532 113.461 113.96 113.399 114.014Z" fill="#263238"/>
<path d="M113.707 111.766C113.418 111.738 113.142 111.626 112.907 111.441C112.637 111.267 112.387 111.06 112.161 110.823C112.028 110.68 111.904 110.529 111.789 110.369C111.718 110.277 111.66 110.175 111.617 110.065C111.585 109.983 111.579 109.892 111.6 109.806C111.62 109.72 111.666 109.644 111.73 109.59C111.79 109.546 111.857 109.517 111.928 109.507C111.999 109.496 112.071 109.504 112.139 109.529C112.24 109.571 112.336 109.627 112.424 109.697C112.58 109.811 112.726 109.94 112.861 110.083C113.087 110.327 113.277 110.607 113.425 110.915C113.585 111.183 113.667 111.499 113.658 111.82C113.613 111.82 113.522 111.494 113.247 111.03C113.087 110.765 112.896 110.525 112.68 110.315C112.552 110.184 112.414 110.064 112.268 109.958C112.116 109.843 111.973 109.783 111.902 109.85C111.831 109.918 111.87 109.886 111.886 109.954C111.921 110.034 111.965 110.11 112.016 110.179C112.116 110.331 112.224 110.477 112.34 110.615C112.544 110.85 112.767 111.062 113.007 111.251C113.251 111.405 113.484 111.577 113.707 111.766Z" fill="#263238"/>
<path d="M113.564 111.848C113.496 111.536 113.52 111.208 113.632 110.912C113.727 110.579 113.872 110.266 114.06 109.986C114.174 109.822 114.302 109.67 114.442 109.532C114.523 109.435 114.625 109.361 114.738 109.319C114.851 109.276 114.973 109.266 115.09 109.289C115.161 109.32 115.222 109.372 115.267 109.44C115.312 109.508 115.338 109.588 115.343 109.672C115.349 109.791 115.342 109.911 115.32 110.029C115.282 110.237 115.215 110.437 115.123 110.622C114.969 110.937 114.746 111.203 114.475 111.398C114.011 111.73 113.652 111.705 113.655 111.673C113.896 111.535 114.13 111.383 114.355 111.215C114.575 111.023 114.755 110.779 114.88 110.501C114.954 110.339 115.007 110.165 115.035 109.986C115.071 109.79 115.058 109.611 114.987 109.604C114.916 109.602 114.846 109.617 114.781 109.648C114.716 109.679 114.658 109.725 114.611 109.782C114.482 109.904 114.362 110.038 114.254 110.183C114.072 110.43 113.922 110.706 113.811 111.001C113.636 111.498 113.6 111.852 113.564 111.848Z" fill="#263238"/>
<path d="M90.6512 63.5538C88.03 63.6218 85.545 64.0292 83.7403 66.1235C81.346 68.904 78.3879 72.8674 78.2323 75.6122C77.9602 79.7186 80.2282 80.9373 81.8482 81.9416C82.5776 82.3774 83.4008 82.5861 84.2296 82.5456L114.514 82.2918L115.466 76.6343L95.8773 71.3092L96.6905 63.1786L90.6512 63.5538Z" fill="#263238"/>
<path d="M96.6938 63.1787L106.223 62.6926C106.223 62.6926 122.672 63.6933 126.19 67.2672C129.709 70.8412 129.262 74.8511 128.092 78.7038C126.923 82.5564 116.61 107.345 116.61 107.345C116.61 107.345 117.446 108.921 116.976 110.49C116.787 111.177 116.44 111.799 115.969 112.295C115.498 112.79 114.918 113.142 114.287 113.317L105.127 109.604C105.127 109.604 103.883 109.121 104.761 107.817C105.639 106.512 106.223 106.287 106.223 106.287V103.721C106.223 103.721 109.443 97.2667 109.735 96.3803C110.026 95.494 113.111 82.3563 113.111 82.3563L115.162 78.4715C115.162 78.4715 110.204 75.9018 105.911 74.0398L95.8676 71.3129L96.6938 63.1787Z" fill="#263238"/>
<path d="M112.148 109.139C112.129 109.164 111.841 108.91 111.345 108.56C110.051 107.635 108.593 107.025 107.068 106.773C106.748 106.739 106.43 106.686 106.116 106.616C106.439 106.574 106.766 106.582 107.088 106.637C107.864 106.729 108.626 106.931 109.356 107.238C110.087 107.542 110.778 107.951 111.413 108.453C111.685 108.644 111.932 108.875 112.148 109.139Z" fill="#455A64"/>
<path d="M116.723 107.366C116.525 107.184 116.347 106.976 116.192 106.748C115.884 106.348 115.473 105.78 115.042 105.136C114.611 104.493 114.241 103.885 113.989 103.442C113.834 103.214 113.708 102.964 113.613 102.699C113.793 102.903 113.954 103.127 114.092 103.367L115.184 105.022L116.289 106.662C116.457 106.878 116.603 107.114 116.723 107.366Z" fill="#455A64"/>
<path d="M120.08 74.9224C120.08 74.9545 119.756 75.0332 119.215 75.2297C118.523 75.4831 117.861 75.825 117.242 76.2483C116.625 76.6769 116.055 77.183 115.544 77.7565C115.152 78.1961 114.938 78.4999 114.915 78.4713C115.057 78.1707 115.238 77.8948 115.453 77.6528C115.946 77.039 116.517 76.5069 117.148 76.0732C117.778 75.6402 118.461 75.3081 119.176 75.0868C119.468 74.9833 119.773 74.9279 120.08 74.9224Z" fill="#455A64"/>
<path d="M110.713 92.4597C110.717 92.3857 110.729 92.3125 110.749 92.2417C110.788 92.0809 110.833 91.8843 110.891 91.627L111.439 89.3718L113.315 81.9559C113.694 80.5085 114.021 79.129 114.387 77.8781C114.775 76.7902 115.361 75.8022 116.111 74.9761C116.606 74.4163 117.154 73.9178 117.747 73.4893C117.961 73.3392 118.126 73.2284 118.243 73.1605C118.3 73.1207 118.361 73.0871 118.424 73.0604C118.424 73.0604 118.194 73.232 117.776 73.5501C117.206 74.0013 116.675 74.511 116.192 75.0725C115.469 75.8923 114.904 76.8649 114.53 77.9317C114.177 79.1611 113.853 80.5585 113.474 81.9988L111.559 89.4255L110.956 91.6627C110.885 91.9093 110.83 92.1095 110.784 92.2667C110.768 92.3339 110.744 92.3987 110.713 92.4597Z" fill="#455A64"/>
<path d="M102.286 73.543C102.237 73.543 102.036 71.5809 101.839 69.1542C101.641 66.7275 101.515 64.7511 101.567 64.7476C101.618 64.744 101.816 66.7061 102.014 69.1363C102.211 71.5666 102.335 73.5358 102.286 73.543Z" fill="#455A64"/>
<path d="M86.4296 78.7859C86.4004 78.7859 86.2546 78.4821 85.9565 78.0175C85.5663 77.4133 85.1005 76.8731 84.573 76.4129C84.0414 75.9589 83.4532 75.5918 82.8267 75.3229C82.3439 75.1156 82.0296 75.0334 82.0361 75.0012C82.321 75.0156 82.602 75.0795 82.8688 75.1906C84.1881 75.6753 85.3153 76.6473 86.0602 77.9425C86.2245 78.1993 86.3493 78.4843 86.4296 78.7859Z" fill="#455A64"/>
<path d="M92.2648 71.6524C92.2648 71.6846 91.8436 71.3987 91.1437 71.0484C89.3122 70.1303 87.2811 69.8079 85.2891 70.1192C84.5277 70.2407 84.0676 70.3908 84.0612 70.3551C84.1622 70.2924 84.2715 70.2478 84.3852 70.2228C84.6783 70.1222 84.977 70.0423 85.2794 69.9834C87.2961 69.5906 89.3738 69.92 91.2085 70.9233C91.4846 71.0718 91.751 71.2414 92.0056 71.4308C92.1008 71.4912 92.188 71.5658 92.2648 71.6524Z" fill="#455A64"/>
<path d="M115.077 76.6309C114.998 76.6214 114.919 76.6071 114.841 76.588L114.167 76.4236L111.698 75.8124C109.615 75.2978 106.731 74.608 103.533 73.9075C100.335 73.207 97.4325 72.628 95.3265 72.2385L92.8317 71.7667L92.1545 71.6309C92.0758 71.6173 91.9978 71.5982 91.9213 71.5737C92.0017 71.5712 92.082 71.5784 92.161 71.5952L92.8414 71.6917C93.4343 71.781 94.2897 71.9204 95.3459 72.1027C97.4584 72.4601 100.368 73.0212 103.569 73.7181C106.77 74.415 109.65 75.1298 111.727 75.6802C112.767 75.9554 113.606 76.1841 114.183 76.3521L114.851 76.5487C114.929 76.5665 115.005 76.5941 115.077 76.6309Z" fill="#455A64"/>
<path d="M95.8805 72.2705C95.759 71.905 95.6194 71.5471 95.4625 71.1984C95.2729 70.8354 95.0397 70.5024 94.7692 70.2084C94.4343 69.8487 94.0805 69.511 93.7097 69.197C93.0232 68.6384 92.2973 68.1413 91.5389 67.7103C91.2167 67.5446 90.9069 67.351 90.6123 67.1313C90.9485 67.2503 91.2739 67.4034 91.5843 67.5888C92.3684 67.9884 93.1131 68.4758 93.8069 69.0433C94.1851 69.3617 94.5424 69.7092 94.8761 70.0833C95.1496 70.3954 95.3809 70.7493 95.563 71.134C95.6813 71.393 95.7716 71.6665 95.8319 71.9489C95.8639 72.0524 95.8803 72.1611 95.8805 72.2705Z" fill="#455A64"/>
<path d="M129.612 77.3206C129.651 77.3634 129.145 77.9281 128.75 78.7859C128.355 79.6436 128.228 80.4227 128.173 80.412C128.203 79.8142 128.346 79.2299 128.594 78.6973C128.842 78.1646 129.189 77.6956 129.612 77.3206Z" fill="#263238"/>
<path d="M154.119 28.9976C154.111 29.0151 154.101 29.0319 154.09 29.0476L154.002 29.1906L153.646 29.741L152.272 31.7817C151.08 33.5436 149.382 36.0383 147.357 39.0189L147.315 39.0832L147.257 39.0368L142.97 35.6952L143.084 35.6737C142.066 37.1926 140.981 38.8116 139.86 40.4771C138.645 42.2819 137.469 44.051 136.354 45.6843L136.312 45.7522L136.251 45.7093L130.986 42.3105L131.076 42.2891L126.54 48.5434L125.264 50.2697L124.924 50.7236C124.887 50.7765 124.847 50.8267 124.804 50.8737C124.834 50.8158 124.869 50.7608 124.907 50.7093L125.231 50.2411L126.476 48.4791L130.969 42.1818L131.008 42.1282L131.06 42.164L136.335 45.5449L136.228 45.5699L139.727 40.3556L142.967 35.5558L143.016 35.4843L143.08 35.5379L147.354 38.8938H147.254L152.217 31.6959L153.62 29.6838L153.996 29.1584C154.035 29.1012 154.067 29.0584 154.096 29.0226C154.125 28.9869 154.116 28.9976 154.119 28.9976Z" fill="#263238"/>
<path d="M153.659 34.3014C153.646 34.1624 153.646 34.0222 153.659 33.8832C153.678 33.5759 153.704 33.1971 153.73 32.7503C153.798 31.7925 153.902 30.4702 154.028 29.0156V28.9906L154.142 29.0871C152.894 29.5767 151.764 30.0127 150.944 30.3201L149.972 30.6775C149.855 30.729 149.733 30.7638 149.609 30.7811C149.717 30.7103 149.833 30.6527 149.952 30.6095L150.908 30.1985C151.718 29.8626 152.852 29.4051 154.087 28.9155L154.213 28.8655V29.012V29.0263C154.087 30.4809 153.964 31.7997 153.866 32.7539C153.818 33.2006 153.776 33.5795 153.74 33.8832C153.73 34.026 153.703 34.1666 153.659 34.3014Z" fill="#263238"/>
<path d="M116.493 49.8371C116.344 48.7435 113.383 45.1267 113.383 45.1267C113.383 45.1267 110.807 38.1719 110.363 36.2384C110.03 35.0195 109.625 33.8257 109.151 32.6645C108.115 30.731 107.603 30.6953 105.827 29.5945L102.386 27.9184L101.965 26.8855C101.603 25.9954 100.977 25.268 100.19 24.8234L91.5681 19.9128L88.8983 25.1129C88.8983 25.1129 83.7727 27.7826 83.4746 28.2043C82.4216 29.6839 83.1506 53.4468 83.1506 53.4468C83.1506 53.4468 82.6355 62.7067 82.062 65.305C81.4885 67.9032 81.1548 69.8224 81.1548 69.8224L83.7144 66.5773C85.2177 64.5009 88.5128 63.543 90.8812 63.5824L111.112 63.6789L109.88 57.0242L126.667 60.9377C126.667 60.9377 129.482 54.8835 129.706 54.762C129.929 54.6404 116.493 49.8371 116.493 49.8371Z" fill="#44B1C0"/>
<path d="M91.1307 27.1535C90.9881 26.9963 92.7507 31.6281 93.8879 36.6602C94.6072 39.7981 94.7595 44.8802 94.7595 47.7036L95.1936 55.6162V62.5389L104.894 61.8242L103.443 50.1946C103.443 50.1946 102.26 42.6894 101.93 39.8302C101.628 37.2177 100.186 26.7461 100.186 26.7461C100.186 26.7461 95.1936 31.7174 91.1307 27.1535Z" fill="white"/>
<path d="M112.657 54.2259C112.642 54.1361 112.642 54.0441 112.657 53.9543C112.68 53.7124 112.722 53.4733 112.783 53.2395C112.992 52.4563 113.374 51.7426 113.895 51.1631C114.418 50.5865 115.064 50.1648 115.774 49.9373C115.985 49.8674 116.202 49.8196 116.422 49.7943C116.577 49.7943 116.665 49.7943 116.668 49.7943C116.671 49.7943 116.328 49.8658 115.81 50.0659C115.132 50.3185 114.516 50.7402 114.011 51.2981C113.505 51.8559 113.123 52.535 112.894 53.2824C112.725 53.8507 112.689 54.2295 112.657 54.2259Z" fill="#263238"/>
<path d="M113.159 49.9874C113.609 49.6944 114.118 49.5321 114.64 49.5154C115.157 49.4358 115.684 49.5048 116.169 49.7156C116.169 49.7728 115.486 49.6298 114.653 49.7156C113.82 49.8014 113.176 50.0446 113.159 49.9874Z" fill="#263238"/>
<path d="M83.7209 27.9897C82.3586 28.643 81.1548 29.6408 80.2069 30.9024C79.259 32.164 78.5937 33.6541 78.2648 35.252C77.3576 39.3334 73.4664 56.02 74.2667 58.5146C75.0669 61.0092 90.6187 63.4609 90.6187 63.4609L92.4623 54.8835L84.5633 52.4997C84.5633 52.4997 84.6637 44.5585 84.7641 41.2669C84.8646 37.9753 83.7209 27.9897 83.7209 27.9897Z" fill="#44B1C0"/>
<path d="M92.2582 56.0879L95.0251 56.8885L93.3825 63.5002L90.6609 63.368L92.2582 56.0879Z" fill="white"/>
<path d="M111.303 61.8205L108.811 58.9006L103.679 57.4711C103.679 57.4711 98.9779 59.0257 98.8645 59.0221C98.7511 59.0186 94.7724 57.8213 94.7724 57.8213L93.3824 63.4431L100.549 63.9863L108.733 63.6289C108.733 63.6289 109.158 63.1893 108.905 62.8891C108.652 62.5889 110.276 63.3966 110.467 63.4073C110.658 63.4181 111.027 63.5789 111.28 63.2394C111.452 63.0071 111.685 62.2637 111.303 61.8205Z" fill="#C78976"/>
<path d="M108.905 62.8855C108.627 62.8261 108.355 62.7375 108.092 62.621C107.593 62.4459 106.906 62.2136 106.148 61.9957C105.39 61.7777 104.674 61.6168 104.162 61.5025C103.881 61.462 103.604 61.3914 103.336 61.2916C103.62 61.2775 103.905 61.3015 104.185 61.3631C104.861 61.4659 105.532 61.6114 106.193 61.7991C106.853 61.9848 107.502 62.214 108.137 62.4852C108.408 62.5816 108.666 62.7161 108.905 62.8855Z" fill="#8B5D54"/>
<path d="M111.303 61.8206C110.917 61.7096 110.537 61.5747 110.166 61.4167C109.469 61.1558 108.49 60.8378 107.405 60.5054C106.32 60.173 105.357 59.7906 104.625 59.7477C104.23 59.7271 103.835 59.7438 103.443 59.7978C103.543 59.7379 103.653 59.6991 103.767 59.6834C104.056 59.6151 104.352 59.5887 104.648 59.6048C105.406 59.6048 106.401 59.9622 107.473 60.3195C108.546 60.6769 109.534 60.995 110.227 61.2916C110.571 61.4382 110.849 61.5668 111.037 61.649C111.132 61.6921 111.222 61.7499 111.303 61.8206Z" fill="#8B5D54"/>
<path d="M74.207 57.6176C74.207 57.6176 74.207 57.7606 74.2458 58.0215C74.331 58.4003 74.5199 58.741 74.7869 58.9971C75.4641 59.6905 76.7536 60.2694 78.3898 60.5947C79.1382 60.8663 79.9903 61.0807 80.9008 61.3094C81.8112 61.5382 82.7929 61.7669 83.8167 61.9992C85.8871 62.4638 88.1778 62.957 90.6013 63.4573L90.4976 63.5324L91.0451 61.0307C91.4825 59.065 91.907 57.1566 92.3055 55.3518L92.3671 55.4697L85.3493 53.2575C84.3823 52.8077 83.3354 52.6061 82.2875 52.6678C81.4917 52.7159 80.7098 52.918 79.9774 53.2646C79.5116 53.4864 79.0666 53.7581 78.649 54.0759L78.325 54.3368L78.2116 54.419C78.2116 54.419 78.2407 54.3797 78.312 54.3153C78.3833 54.251 78.4805 54.1545 78.636 54.0401C79.048 53.7036 79.4911 53.4161 79.9579 53.1824C80.6953 52.8151 81.4866 52.5972 82.294 52.5391C83.3609 52.4661 84.4289 52.6616 85.4173 53.1109L92.4448 55.2874L92.5291 55.3124L92.5096 55.4054C92.1079 57.2138 91.6899 59.1186 91.2557 61.0879C91.0646 61.942 90.8799 62.7819 90.7049 63.5896L90.6823 63.6825H90.598C88.1713 63.175 85.8839 62.6782 83.8135 62.1993C82.78 61.9635 81.8015 61.7276 80.8975 61.4846C79.9936 61.2415 79.1382 61.0271 78.3768 60.7412C76.7244 60.3838 75.4284 59.7905 74.748 59.0615C74.4766 58.792 74.2904 58.4339 74.2167 58.0393C74.1903 57.9006 74.187 57.7577 74.207 57.6176Z" fill="#263238"/>
<path d="M84.991 53.0715C84.9683 53.0965 84.7058 52.8285 84.2296 52.4783C82.985 51.5608 81.5142 51.0891 80.0176 51.1274C79.4474 51.1274 79.0942 51.2096 79.0878 51.1774C79.3836 51.0564 79.6957 50.9912 80.0111 50.9844C81.5431 50.8638 83.0636 51.3519 84.2976 52.3603C84.5623 52.5541 84.7965 52.7944 84.991 53.0715Z" fill="#263238"/>
<path d="M86.0245 39.0975C86.042 39.2709 86.042 39.4459 86.0245 39.6193C86.0245 39.9553 85.9921 40.4413 85.95 41.0489C85.8625 42.2462 85.7005 43.908 85.4154 45.695C85.1907 47.2447 84.8659 48.7746 84.4434 50.2732C84.3559 50.5555 84.2652 50.8129 84.1906 51.038L83.9638 51.5991C83.898 51.7586 83.8165 51.9096 83.7208 52.0494C83.7672 51.8831 83.8268 51.7217 83.899 51.567C83.9573 51.399 84.0221 51.2096 84.0934 50.9951C84.1647 50.7807 84.2392 50.5127 84.317 50.2267C84.7057 48.7267 85.014 47.2028 85.2404 45.6628C85.5255 43.8759 85.707 42.214 85.8268 41.0167C85.8787 40.4521 85.9241 39.9767 85.9597 39.5872C85.9662 39.422 85.9879 39.2579 86.0245 39.0975Z" fill="#263238"/>
<path d="M93.1589 35.0625C93.1589 35.0625 93.1233 34.9625 93.0423 34.7873C92.9227 34.5392 92.7476 34.3288 92.5336 34.1762C92.375 34.0561 92.1935 33.9776 92.0032 33.9467C91.8128 33.9157 91.6186 33.9331 91.4353 33.9975C91.2034 34.086 90.9962 34.2391 90.8338 34.442C90.6714 34.6449 90.5594 34.8907 90.5086 35.1555L90.4633 35.4199L90.3596 35.1769C89.9637 34.2413 89.6186 33.2806 89.326 32.2999C88.8102 30.6665 88.5527 28.9474 88.5646 27.2178C88.5646 26.8854 88.6067 26.5888 88.6229 26.3243C88.6391 26.0599 88.6942 25.8419 88.7298 25.6632C88.7647 25.4748 88.8157 25.2905 88.8821 25.1128C88.764 25.8084 88.699 26.5138 88.6877 27.2214C88.7157 28.9257 88.988 30.6144 89.4945 32.2249C89.7845 33.1973 90.122 34.1517 90.5054 35.084L90.3531 35.1054C90.4112 34.8122 90.5381 34.5409 90.7212 34.3188C90.9044 34.0968 91.1372 33.9317 91.3964 33.8403C91.5979 33.7748 91.8104 33.7618 92.0172 33.8021C92.2241 33.8424 92.4197 33.935 92.5887 34.0726C92.8075 34.2421 92.9801 34.4744 93.0877 34.7445C93.115 34.8161 93.1367 34.8903 93.1525 34.966C93.1622 35.0339 93.1622 35.0625 93.1589 35.0625Z" fill="#263238"/>
<path d="M101.547 35.9025C101.515 35.7566 101.491 35.6085 101.476 35.4593C101.403 35.0475 101.38 34.6269 101.408 34.2085C101.477 33.5749 101.751 32.99 102.179 32.5609C102.434 32.3107 102.764 32.1721 103.106 32.1713C103.292 32.1697 103.477 32.2149 103.645 32.3035C103.813 32.392 103.961 32.5216 104.078 32.6824L103.938 32.7753L103.634 31.8854C103.038 30.1307 102.506 28.5367 102.13 27.3824C101.955 26.8284 101.806 26.3674 101.693 26.01C101.632 25.8435 101.586 25.6712 101.554 25.4954C101.632 25.6514 101.699 25.8139 101.755 25.9814C101.881 26.3388 102.043 26.7891 102.241 27.3323C102.646 28.476 103.193 30.0628 103.789 31.8175L104.091 32.7074L104.285 33.2828L103.961 32.8039C103.858 32.6635 103.729 32.5501 103.581 32.4722C103.434 32.3943 103.272 32.3537 103.109 32.3536C102.802 32.3534 102.504 32.4738 102.27 32.6931C101.867 33.0935 101.601 33.635 101.518 34.2263C101.485 34.6333 101.491 35.0431 101.537 35.4486C101.559 35.5988 101.562 35.7513 101.547 35.9025Z" fill="#263238"/>
<path d="M107.288 36.8245C107.334 36.8245 108.056 42.0352 108.908 48.4755C109.76 54.9157 110.402 60.1443 110.357 60.1515C110.311 60.1586 109.589 54.9443 108.737 48.5005C107.885 42.0567 107.243 36.8316 107.288 36.8245Z" fill="#263238"/>
<g opacity="0.3">
<path opacity="0.3" d="M89.4297 32.3607C89.4729 33.8082 89.7585 35.2343 90.2721 36.5671C90.6382 36.0668 91.0464 35.5379 91.607 35.3878C92.3036 35.2055 93.0099 35.6808 93.5121 36.2562C93.4245 35.6765 93.216 35.1271 92.903 34.6516C92.749 34.4177 92.5481 34.2264 92.316 34.0924C92.0839 33.9585 91.8268 33.8857 91.5648 33.8796C91.3017 33.8857 91.0479 33.9885 90.8436 34.1717C90.6394 34.3549 90.4964 34.608 90.4373 34.891L89.4653 32.3893" fill="black"/>
</g>
<path d="M85.9987 34.616C85.9663 34.616 85.976 34.2264 85.8755 33.6188C85.7384 32.8269 85.4585 32.0734 85.0526 31.4029C84.8288 31.0366 84.5703 30.6975 84.2815 30.3915C84.0439 30.1423 83.7845 29.9196 83.5071 29.7267C83.034 29.3943 82.7003 29.2693 82.71 29.2335C82.7938 29.2397 82.8759 29.2614 82.953 29.2979C83.0463 29.3296 83.1373 29.369 83.2252 29.4158C83.3445 29.4716 83.4603 29.536 83.5719 29.6088C83.8658 29.7921 84.1406 30.0102 84.3916 30.2593C84.6965 30.5696 84.9683 30.9173 85.2016 31.2957C85.6204 31.9873 85.8928 32.7739 85.9987 33.5974C86.0311 33.8446 86.042 34.0948 86.0311 34.3443C86.0213 34.5195 86.0116 34.616 85.9987 34.616Z" fill="#263238"/>
<g opacity="0.3">
<path opacity="0.3" d="M107.58 39.1442L109.748 55.9915L109.854 56.2595C110.365 50.4354 109.585 44.5616 107.58 39.1442Z" fill="black"/>
</g>
<path d="M119.61 48.8257L112.563 62.4065L95.1936 62.8247L95.1515 63.6896L111.967 63.5538L112.502 63.5323L130.26 63.5716L133.85 56.7455L138.434 49.4976C138.503 49.3902 138.543 49.2641 138.551 49.1331C138.558 49.0021 138.533 48.8712 138.478 48.7549C138.423 48.6386 138.34 48.5414 138.238 48.4738C138.136 48.4062 138.019 48.3709 137.9 48.3718L120.171 48.4469C120.055 48.4492 119.942 48.4855 119.844 48.5521C119.745 48.6187 119.664 48.7132 119.61 48.8257Z" fill="#E0E0E0"/>
<path d="M133.85 56.7634C133.85 56.7634 134.76 57.6855 134.618 58.4682C134.475 59.2509 134.52 59.837 133.85 59.8978C133.859 60.1835 133.771 60.4626 133.601 60.6788C133.431 60.8951 133.194 61.0323 132.936 61.0629C132.936 61.0629 133.143 62.2923 131.844 62.4924C131.844 62.4924 131.449 63.8076 130.629 63.4896C130.161 63.3114 129.71 63.0802 129.285 62.7998L129.045 62.3209C129.045 62.3209 127.843 61.8241 128.138 61.0736C128.319 60.6197 128.941 60.5018 128.941 60.5018C128.87 60.3146 128.84 60.1114 128.853 59.9089C128.867 59.7064 128.924 59.5103 129.019 59.3367C129.307 58.9078 130.247 59.2616 130.247 59.2616C130.227 58.8945 130.332 58.5325 130.542 58.2466C130.866 57.8285 132.359 58.9614 132.359 58.9614L133.173 57.8892L133.85 56.7634Z" fill="#C78976"/>
<path d="M131.844 62.4961C131.318 62.2488 130.816 61.9422 130.347 61.5811C129.846 61.2792 129.374 60.9198 128.941 60.5089C129.974 61.0568 130.952 61.7241 131.857 62.4996L131.844 62.4961Z" fill="#8B5D54"/>
<path d="M132.936 61.0557C132.447 60.8415 131.981 60.5695 131.546 60.2444C131.083 59.9715 130.648 59.6431 130.25 59.2653C130.739 59.4785 131.205 59.7505 131.64 60.0765C132.104 60.3479 132.539 60.6764 132.936 61.0557Z" fill="#8B5D54"/>
<path d="M131.449 58.3574C131.478 58.3038 132.035 58.6255 132.683 59.0722C133.086 59.3278 133.474 59.6119 133.843 59.9229C133.817 59.9836 133.237 59.6941 132.589 59.2366C132.183 58.9871 131.801 58.6925 131.449 58.3574Z" fill="#8B5D54"/>
<path d="M138.434 48.9044C138.406 48.9093 138.378 48.9093 138.35 48.9044H138.101H137.129L133.604 48.9365L121.969 48.9651H121.12C120.994 48.9504 120.868 48.9739 120.753 49.0331C120.639 49.0924 120.542 49.1851 120.472 49.3011C120.203 49.83 119.941 50.3554 119.681 50.87L118.184 53.8507L115.641 58.8935C114.915 60.3231 114.329 61.4704 113.914 62.2852L113.435 63.2001L113.308 63.436C113.294 63.4643 113.276 63.4906 113.256 63.5146C113.266 63.4837 113.278 63.4538 113.292 63.4253C113.321 63.361 113.357 63.2823 113.406 63.1823C113.512 62.9535 113.665 62.6426 113.853 62.2459L115.534 58.8256C116.25 57.3961 117.099 55.6663 118.045 53.7649C118.518 52.8107 119.017 51.8136 119.532 50.7771L120.326 49.1939C120.412 49.0523 120.531 48.9383 120.669 48.8636C120.808 48.7889 120.963 48.7561 121.117 48.7686H121.966L133.6 48.7972L137.125 48.8293H138.097H138.347L138.434 48.9044Z" fill="#263238"/>
<path d="M125.938 55.7413C125.856 55.872 125.811 56.0257 125.807 56.1841C125.802 56.3425 125.839 56.4989 125.914 56.6346C125.988 56.7704 126.096 56.8797 126.225 56.9496C126.353 57.0195 126.498 57.047 126.641 57.0288C126.783 57.0106 126.918 56.9475 127.029 56.847C127.14 56.7465 127.223 56.6129 127.267 56.462C127.311 56.3112 127.315 56.1496 127.278 55.9964C127.241 55.8433 127.165 55.7051 127.059 55.5984C126.893 55.454 126.682 55.388 126.471 55.4148C126.261 55.4416 126.07 55.559 125.938 55.7413Z" fill="white"/>
<path d="M100.361 26.0313L100.264 22.947C100.264 22.947 103.977 22.05 103.793 17.9114C103.705 15.91 103.216 11.8107 102.736 8.10817C102.484 6.18959 101.587 4.44573 100.224 3.22285C98.86 1.99998 97.1292 1.38754 95.3751 1.50716L95.0155 1.53217C91.1275 2.04682 89.3552 5.97812 89.9287 10.2489L90.8391 26.5245C90.916 27.8871 91.4699 29.1633 92.3841 30.0836C93.2982 31.0039 94.5009 31.4962 95.738 31.4565C96.3645 31.4352 96.9811 31.278 97.5526 30.9939C98.124 30.7097 98.6391 30.3042 99.0685 29.8004C99.4978 29.2966 99.833 28.7044 100.055 28.0577C100.277 27.411 100.381 26.7224 100.361 26.0313Z" fill="#C78976"/>
<path d="M100.264 22.9506C98.5325 23.0641 96.8076 22.6275 95.2941 21.6925C95.2941 21.6925 96.5609 24.6234 100.284 23.9979L100.264 22.9506Z" fill="#8B5D54"/>
<path d="M102.26 11.9931C102.27 12.1471 102.225 12.2993 102.135 12.4175C102.045 12.5356 101.917 12.6103 101.777 12.6257C101.709 12.6362 101.64 12.6316 101.574 12.6122C101.508 12.5927 101.446 12.5589 101.392 12.5125C101.338 12.4662 101.293 12.4084 101.259 12.3425C101.226 12.2766 101.205 12.204 101.197 12.1289C101.192 11.9762 101.24 11.827 101.332 11.7125C101.423 11.5979 101.552 11.5269 101.69 11.5141C101.823 11.4967 101.956 11.5369 102.063 11.6263C102.169 11.7157 102.24 11.8472 102.26 11.9931Z" fill="#263238"/>
<path d="M102.043 10.1845C101.981 10.2667 101.557 9.96293 100.98 10.0022C100.404 10.0416 100.008 10.3918 99.9338 10.3168C99.8593 10.2417 99.9597 10.1416 100.138 9.9808C100.375 9.77437 100.664 9.65335 100.965 9.63416C101.266 9.61498 101.566 9.69857 101.823 9.87358C102.007 10.013 102.075 10.1488 102.043 10.1845Z" fill="#263238"/>
<path d="M96.6516 12.2467C96.6606 12.4007 96.6149 12.5525 96.5242 12.67C96.4335 12.7874 96.3049 12.8613 96.1656 12.8758C96.098 12.8868 96.0291 12.8827 95.9629 12.8637C95.8968 12.8447 95.8348 12.8111 95.7807 12.7651C95.7266 12.7191 95.6814 12.6615 95.6479 12.5957C95.6144 12.53 95.5933 12.4575 95.5857 12.3826C95.5757 12.2285 95.6206 12.0763 95.7107 11.9582C95.8009 11.84 95.9292 11.7653 96.0684 11.7499C96.1364 11.7399 96.2054 11.7448 96.2716 11.7644C96.3377 11.784 96.3997 11.8179 96.4539 11.8641C96.5082 11.9103 96.5536 11.9679 96.5875 12.0336C96.6214 12.0993 96.6432 12.1717 96.6516 12.2467Z" fill="#263238"/>
<path d="M96.3859 10.6886C96.3244 10.7708 95.8999 10.467 95.3232 10.5063C94.7465 10.5456 94.3512 10.8958 94.2767 10.8208C94.2021 10.7457 94.3026 10.6457 94.4808 10.4848C94.7173 10.2719 95.0087 10.1468 95.3135 10.1274C95.6123 10.1065 95.9094 10.1903 96.1624 10.3669C96.3503 10.517 96.4281 10.6528 96.3859 10.6886Z" fill="#263238"/>
<path d="M98.7414 15.2595C99.0385 15.1338 99.3488 15.0498 99.6648 15.0093C99.8139 14.9843 99.95 14.9414 99.9694 14.8306C99.9708 14.6619 99.9268 14.4965 99.8431 14.3553L99.3441 13.1473C98.641 11.4282 98.1226 10.0129 98.1842 9.98078C98.2457 9.94861 98.8678 11.321 99.5709 13.0365C99.7394 13.4618 99.8949 13.8657 100.057 14.2516C100.16 14.4416 100.2 14.6652 100.17 14.8842C100.152 14.9431 100.122 14.9966 100.082 15.0405C100.042 15.0845 99.9936 15.1179 99.9402 15.138C99.8606 15.1682 99.7779 15.1874 99.694 15.1952C99.3801 15.2597 99.0602 15.2813 98.7414 15.2595Z" fill="#263238"/>
<path d="M97.076 15.8027C97.17 15.8027 97.2089 16.4818 97.7726 16.9357C98.3364 17.3896 98.9974 17.2681 99.0071 17.3646C99.0071 17.4075 98.8645 17.5075 98.5859 17.5361C98.2193 17.5657 97.8549 17.4532 97.5555 17.218C97.2696 16.989 97.0746 16.6473 97.0112 16.2638C96.9658 15.9886 97.0274 15.8027 97.076 15.8027Z" fill="#263238"/>
<path d="M96.3957 8.18669C96.3503 8.36537 95.7703 8.32249 95.0997 8.45828C94.429 8.59407 93.8911 8.81563 93.8037 8.68341C93.7583 8.61194 93.8458 8.44398 94.0564 8.26174C94.3372 8.03219 94.6639 7.88024 95.0089 7.81862C95.3522 7.75048 95.7052 7.77252 96.0393 7.88295C96.2823 7.97586 96.4281 8.1045 96.3957 8.18669Z" fill="#263238"/>
<path d="M101.729 8.35829C101.635 8.51195 101.23 8.38688 100.757 8.41189C100.284 8.43691 99.8786 8.56912 99.7847 8.41189C99.7393 8.34042 99.7847 8.19034 99.9661 8.05455C100.191 7.86997 100.463 7.76865 100.744 7.7651C101.024 7.75039 101.302 7.83286 101.537 8.00095C101.706 8.14031 101.771 8.29754 101.729 8.35829Z" fill="#263238"/>
<path d="M102.26 6.23545C102.26 6.23545 101.126 3.71227 99.9596 3.18333C98.5502 2.5436 98.0513 4.2555 96.7196 3.93028C95.388 3.60505 94.0434 3.00464 92.7701 4.20904C91.3769 5.52782 92.1221 6.33552 92.1221 8.17608C92.1707 15.642 91.0562 17.8256 90.5021 14.3482C90.4406 13.9658 89.4588 13.7264 89.2256 12.1145C88.921 10.0238 88.7039 7.46845 89.0474 5.95311C89.3357 4.67008 89.9384 3.75873 91.0497 2.73659C92.8057 1.09974 95.3329 0.896027 97.0631 0.949635C98.7932 1.00324 102.26 2.97962 102.26 6.23545Z" fill="#263238"/>
<path d="M90.7548 14.2195C90.7421 14.0681 90.7017 13.9211 90.636 13.7875C90.5702 13.6538 90.4805 13.5363 90.3724 13.442C90.2642 13.3478 90.1398 13.2788 90.0067 13.2392C89.8736 13.1996 89.7346 13.1902 89.5982 13.2117C88.9016 13.3332 88.1467 13.8228 88.2828 15.4168C88.5225 18.2365 91.0432 17.3895 91.0399 17.3073C91.0367 17.2251 90.865 15.3989 90.7548 14.2195Z" fill="#C78976"/>
<path d="M90.3919 16.3031C90.3919 16.3031 90.3498 16.3424 90.2785 16.3889C90.1794 16.448 90.0636 16.4634 89.9545 16.4318C89.6727 16.3496 89.407 15.8992 89.3487 15.3918C89.3225 15.1509 89.3458 14.9066 89.4167 14.677C89.433 14.5862 89.4689 14.5012 89.5214 14.429C89.5738 14.3569 89.6413 14.2997 89.718 14.2624C89.7681 14.243 89.8227 14.2431 89.8728 14.2626C89.9229 14.2821 89.9654 14.3198 89.9934 14.3696C90.0323 14.4482 90.0226 14.5054 90.0355 14.509C90.0485 14.5126 90.0874 14.4554 90.0582 14.341C90.0356 14.2733 89.9949 14.2148 89.9416 14.1731C89.8658 14.1225 89.7754 14.1059 89.6889 14.1266C89.5857 14.1602 89.4922 14.2226 89.4172 14.3077C89.3423 14.3929 89.2886 14.4979 89.2612 14.6126C89.1721 14.8686 89.1421 15.1449 89.1737 15.4168C89.2385 15.9814 89.5463 16.4889 89.9254 16.5676C89.9961 16.5822 90.0688 16.5792 90.1384 16.5587C90.2079 16.5383 90.2724 16.5011 90.3271 16.4496C90.3952 16.3746 90.4016 16.3067 90.3919 16.3031Z" fill="#8B5D54"/>
<path d="M90.5022 8.73712C90.8313 8.99765 91.2146 9.16237 91.6168 9.21603C91.8187 9.23705 92.0207 9.17603 92.1847 9.04441C92.3488 8.9128 92.4637 8.71966 92.5078 8.50124C92.5272 8.30468 92.4721 8.07594 92.579 7.91869C92.6859 7.76144 92.9711 7.76501 93.1881 7.77573C93.5635 7.78109 93.9292 7.64418 94.224 7.38788C94.5189 7.13159 94.7251 6.77143 94.8081 6.3676C94.931 6.49966 95.0943 6.57619 95.2658 6.58214C95.4373 6.5881 95.6046 6.52304 95.7348 6.39977C95.9866 6.14388 96.2047 5.85035 96.3828 5.52773C96.4739 5.36748 96.5992 5.23422 96.7477 5.13954C96.8963 5.04487 97.0635 4.99164 97.2349 4.98449C97.4201 5.03925 97.6103 5.07161 97.8019 5.08099C98.1259 5.02381 98.2749 4.58064 98.3073 4.20895C98.3397 3.83726 98.3527 3.40124 98.6313 3.18323C98.91 2.96522 99.234 3.06172 99.5482 3.09388C99.8625 3.12605 100.258 3.01526 100.316 2.67574C100.325 2.58491 100.316 2.4931 100.292 2.40588C100.267 2.31865 100.227 2.23781 100.174 2.16824C99.9459 1.84064 99.6247 1.60738 99.2619 1.5062C98.8991 1.40502 98.5159 1.44184 98.1745 1.6107C98.0168 1.15434 97.7414 0.75888 97.3824 0.473083C97.0234 0.187286 96.5964 0.0236568 96.154 0.00237663C95.7117 -0.0189035 95.2734 0.103096 94.8932 0.353328C94.513 0.60356 94.2075 0.971081 94.0143 1.41056C93.7271 1.15638 93.3884 0.982563 93.0271 0.90393C92.6659 0.825298 92.2927 0.844179 91.9395 0.958965C91.5863 1.07375 91.2634 1.28104 90.9985 1.56316C90.7336 1.84529 90.5344 2.19388 90.418 2.57924C90.0988 2.5097 89.7681 2.54522 89.4671 2.68139C89.1661 2.81757 88.908 3.04837 88.725 3.34509C88.542 3.64181 88.4421 3.99135 88.4378 4.3502C88.4335 4.70905 88.5249 5.06137 88.7008 5.36333C88.4705 5.50882 88.2772 5.71616 88.139 5.96609C88.0008 6.21602 87.9221 6.50043 87.9102 6.7929C87.9361 7.37903 88.4837 7.92941 88.9891 7.73999C88.9347 7.85874 88.9019 7.98815 88.8928 8.12084C88.8837 8.25353 88.8984 8.38691 88.936 8.51335C88.9736 8.63979 89.0334 8.75683 89.112 8.85777C89.1906 8.95871 89.2865 9.04159 89.3941 9.10166C89.5018 9.16174 89.6191 9.19784 89.7394 9.2079C89.8597 9.21796 89.9806 9.20179 90.0952 9.1603C90.2099 9.11882 90.3159 9.05284 90.4075 8.96612C90.499 8.87941 90.5741 8.77366 90.6286 8.65492" fill="#263238"/>
<path d="M98.4142 2.43274C98.4142 2.43274 98.4142 2.43274 98.4142 2.48277C98.4168 2.53396 98.4168 2.58527 98.4142 2.63645C98.3895 2.83022 98.337 3.01842 98.2587 3.19399C98.1337 3.47415 97.9519 3.71875 97.7273 3.90877C97.4311 4.16192 97.0684 4.30237 96.6938 4.30905L96.7326 4.24472C96.7799 4.36859 96.8043 4.50165 96.8043 4.63606C96.8043 4.77048 96.7799 4.90354 96.7326 5.02741C96.6324 5.28599 96.4981 5.52685 96.3341 5.74219C96.2563 5.87161 96.1662 5.99143 96.0652 6.09958C95.9492 6.20054 95.8122 6.26809 95.6667 6.29615C95.5168 6.33024 95.3617 6.3233 95.2148 6.27595C95.068 6.2286 94.9339 6.14228 94.8243 6.02453L94.9182 5.98879C94.8983 6.28463 94.8229 6.57269 94.6969 6.83476C94.5709 7.09682 94.3969 7.32718 94.186 7.51128C93.9529 7.72589 93.663 7.8513 93.3598 7.86868C93.0738 7.87262 92.7892 7.82432 92.5174 7.72572L92.5855 7.68641C92.4717 8.03781 92.2801 8.35229 92.0282 8.60133C91.9128 8.72406 91.7743 8.81717 91.6225 8.87401C91.4707 8.93084 91.3094 8.95001 91.1502 8.93013C90.8771 8.88389 90.6221 8.75069 90.4166 8.5469C90.2112 8.34311 90.0641 8.07758 89.9935 7.7829L90.0551 7.81149C89.7934 7.98817 89.4841 8.05893 89.1803 8.01163C88.948 7.98522 88.7254 7.89557 88.5323 7.75074C88.4148 7.66207 88.3119 7.55211 88.2277 7.42551C88.1759 7.33616 88.1532 7.28613 88.1532 7.28613C88.2644 7.45311 88.4015 7.59709 88.5582 7.71142C88.7431 7.84036 88.9528 7.9199 89.1706 7.94373C89.4584 7.98253 89.7495 7.90921 89.9935 7.73644L90.0421 7.70428V7.76503C90.1095 8.04173 90.2487 8.29066 90.4427 8.48117C90.6367 8.67167 90.877 8.79543 91.134 8.83721C91.2792 8.85539 91.4263 8.8372 91.5643 8.78398C91.7023 8.73077 91.8277 8.6439 91.931 8.52985C92.1677 8.29275 92.347 7.99424 92.4526 7.66139L92.4721 7.60778H92.5207C92.7794 7.70411 93.0511 7.75124 93.3242 7.74716C93.6043 7.72904 93.8714 7.61115 94.0856 7.41121C94.2852 7.23946 94.45 7.02355 94.5694 6.77734C94.6888 6.53114 94.7602 6.2601 94.7789 5.98165V5.84941L94.8632 5.94591C95.0103 6.09653 95.2003 6.18604 95.4007 6.19908C95.6011 6.21212 95.7994 6.14789 95.9615 6.01738C96.0557 5.91886 96.1404 5.80987 96.2142 5.69216C96.3758 5.48414 96.508 5.25039 96.6063 4.99882C96.6516 4.88676 96.6764 4.76589 96.6792 4.64321C96.682 4.52053 96.6627 4.39845 96.6225 4.28403L96.5998 4.2197H96.6614C97.018 4.22049 97.3654 4.09524 97.6528 3.86231C97.8719 3.68442 98.0523 3.45488 98.1809 3.19041C98.3001 2.95576 98.3792 2.69893 98.4142 2.43274Z" fill="#455A64"/>
<path d="M99.694 12.4934C99.6229 12.2779 99.5665 12.0569 99.5255 11.8322C99.4311 11.2205 99.5246 10.5916 99.7912 10.0453C99.9751 9.6677 100.237 9.34324 100.556 9.09823C100.921 8.81644 101.347 8.64627 101.79 8.60504C102.03 8.5827 102.271 8.59956 102.506 8.65507C102.751 8.70987 102.986 8.80761 103.203 8.94455C103.666 9.22771 104.035 9.66625 104.256 10.1965C104.477 10.7267 104.54 11.321 104.434 11.893C104.385 12.1638 104.298 12.4244 104.175 12.6649C104.063 12.8981 103.919 13.1104 103.747 13.2939C103.43 13.6393 103.035 13.8859 102.604 14.0087C102.227 14.1117 101.833 14.1191 101.453 14.0301C100.899 13.8965 100.402 13.5618 100.041 13.0795C99.913 12.8981 99.7971 12.7071 99.694 12.5076C99.712 12.5641 99.7337 12.619 99.7588 12.672C99.786 12.7383 99.8185 12.8017 99.856 12.8615C99.9009 12.9467 99.9518 13.028 100.008 13.1045C100.311 13.5296 100.719 13.8492 101.183 14.0248C101.647 14.2005 102.147 14.2246 102.623 14.0944C103.07 13.9766 103.48 13.7299 103.812 13.3797C103.991 13.1886 104.142 12.9679 104.259 12.7257C104.389 12.4772 104.48 12.2067 104.528 11.9251C104.638 11.3307 104.573 10.7133 104.344 10.1621C104.114 9.61086 103.732 9.15443 103.251 8.85878C103.025 8.71928 102.78 8.61923 102.526 8.56215C102.282 8.50428 102.032 8.48861 101.784 8.51569C101.354 8.5554 100.941 8.71413 100.582 8.97715C100.223 9.24018 99.9295 9.59898 99.7296 10.0203C99.4582 10.5869 99.3724 11.2396 99.4866 11.8679C99.5031 11.9661 99.5258 12.0628 99.5547 12.1574C99.5716 12.2275 99.5944 12.2957 99.6227 12.3611C99.6432 12.4072 99.6671 12.4514 99.694 12.4934Z" fill="#263238"/>
<path d="M93.0811 12.9222C93.0144 12.7053 92.9582 12.4846 92.9126 12.2611C92.8209 11.649 92.9155 11.0207 93.1815 10.4741C93.3643 10.0968 93.6251 9.77229 93.9429 9.52705C94.3061 9.23595 94.7336 9.05817 95.1806 9.01241C95.4191 8.98828 95.6596 9.00516 95.8934 9.06244C96.139 9.11782 96.3752 9.21551 96.5932 9.35192C97.0559 9.63415 97.4246 10.0722 97.6455 10.602C97.8665 11.1318 97.928 11.7257 97.8212 12.2968C97.7249 12.8303 97.4856 13.3196 97.1343 13.7013C96.839 14.0259 96.4744 14.2634 96.0742 14.392C95.6739 14.5207 95.2508 14.5363 94.8436 14.4376C94.2876 14.3069 93.7884 13.9717 93.4278 13.4869C93.3007 13.3064 93.1849 13.1165 93.0811 12.9187C93.0996 12.9755 93.1223 13.0305 93.1491 13.0831C93.175 13.1493 93.2065 13.2127 93.2431 13.2725C93.2892 13.3577 93.3412 13.439 93.3986 13.5155C93.7565 14.0203 94.2611 14.3737 94.8275 14.5162C95.2475 14.6226 95.6852 14.6102 96.0998 14.4803C96.5144 14.3503 96.8925 14.107 97.1991 13.7728C97.379 13.5832 97.531 13.3637 97.6495 13.1224C97.7763 12.8713 97.867 12.6 97.9184 12.3182C98.0287 11.7219 97.9623 11.1023 97.7289 10.5508C97.4956 9.99928 97.1076 9.54515 96.6224 9.25543C96.3964 9.11442 96.1514 9.01427 95.8966 8.9588C95.653 8.90087 95.4027 8.88519 95.1547 8.91234C94.6949 8.95664 94.2542 9.13553 93.8781 9.43055C93.5523 9.68742 93.2859 10.0253 93.1005 10.4169C92.8297 10.9839 92.745 11.6367 92.8608 12.2646C92.8756 12.362 92.8984 12.4577 92.9288 12.5506C92.9453 12.6219 92.9681 12.6914 92.9969 12.7578C93.0211 12.8149 93.0493 12.8699 93.0811 12.9222Z" fill="#263238"/>
<path d="M97.912 11.1566C98.1489 11.0078 98.4141 10.9222 98.6864 10.9066C98.9587 10.8911 99.2305 10.9462 99.4801 11.0673C99.4801 11.0673 99.4153 10.9851 99.2727 10.9137C99.0866 10.8229 98.8838 10.7818 98.6806 10.7936C98.4774 10.8054 98.2796 10.8698 98.1031 10.9816C97.9671 11.053 97.9022 11.1316 97.912 11.1566Z" fill="#263238"/>
<path d="M90.5216 13.4725C90.9337 13.3026 91.3324 13.0959 91.7139 12.8542C92.1126 12.6494 92.4961 12.4104 92.8608 12.1394C92.4495 12.3111 92.0509 12.5178 91.6685 12.7577C91.2711 12.9652 90.8878 13.2041 90.5216 13.4725Z" fill="#263238"/>
<path d="M53.8904 127.273C53.1041 129.408 51.7614 131.237 50.0322 132.529C48.3029 133.822 46.265 134.519 44.1763 134.533C42.0875 134.548 40.0419 133.878 38.2984 132.609C36.5548 131.341 35.1917 129.53 34.3816 127.406C33.5714 125.282 33.3507 122.941 33.7473 120.679C34.1439 118.417 35.14 116.335 36.6095 114.698C38.0791 113.061 39.956 111.941 42.0026 111.481C44.0493 111.021 46.1738 111.24 48.1071 112.113C50.6962 113.278 52.7598 115.529 53.8444 118.372C54.9289 121.215 54.9455 124.417 53.8904 127.273Z" fill="#44B1C0"/>
<path d="M51.5642 126.237C50.9648 127.863 49.9413 129.258 48.6233 130.242C47.3054 131.227 45.7521 131.759 44.1602 131.769C42.5684 131.78 41.0094 131.269 39.6807 130.302C38.3519 129.335 37.3132 127.955 36.6959 126.336C36.0787 124.718 35.9106 122.934 36.2131 121.21C36.5155 119.486 37.2748 117.899 38.395 116.651C39.5151 115.404 40.9456 114.551 42.5055 114.2C44.0654 113.85 45.6845 114.017 47.1578 114.682C48.135 115.122 49.0241 115.769 49.7743 116.588C50.5246 117.406 51.1214 118.38 51.5305 119.453C51.9397 120.526 52.1533 121.677 52.1591 122.841C52.1648 124.005 51.9627 125.159 51.5642 126.237Z" fill="#44B1C0"/>
<path d="M51.5642 126.237C51.5727 126.189 51.5846 126.143 51.5998 126.097L51.7197 125.697L51.8072 125.404C51.8363 125.293 51.859 125.172 51.8849 125.047C51.9594 124.747 52.0125 124.441 52.0437 124.132C52.1511 123.288 52.1423 122.431 52.0178 121.591C51.735 119.57 50.8239 117.721 49.4407 116.36C48.0575 115 46.2883 114.212 44.4363 114.132C44.0592 114.113 43.6814 114.123 43.3055 114.161C43.1143 114.186 42.9264 114.225 42.7353 114.257C42.5423 114.286 42.3517 114.332 42.165 114.393C41.782 114.502 41.4054 114.636 41.0375 114.797C40.6689 114.975 40.3116 115.18 39.9684 115.411C39.2579 115.881 38.6211 116.475 38.0827 117.17C36.9618 118.604 36.2952 120.402 36.1841 122.291C36.1271 123.203 36.2026 124.119 36.4076 125.004C36.5943 125.862 36.905 126.681 37.3278 127.43C37.7176 128.158 38.2085 128.814 38.7825 129.375C40.1559 130.746 41.9181 131.55 43.7687 131.648C45.6193 131.747 47.4435 131.134 48.9301 129.914C49.549 129.413 50.0952 128.81 50.5501 128.127C50.7232 127.883 50.8802 127.625 51.0199 127.355C51.0847 127.237 51.1462 127.134 51.1948 127.034C51.2434 126.934 51.2823 126.841 51.3179 126.755L51.4897 126.38C51.5074 126.335 51.528 126.292 51.5512 126.251C51.5402 126.298 51.525 126.343 51.5059 126.387L51.3503 126.773L51.2337 127.055C51.1851 127.159 51.1235 127.266 51.0652 127.384C50.9276 127.658 50.7728 127.92 50.6019 128.17C50.1507 128.87 49.6043 129.488 48.9819 130.004C48.1583 130.697 47.2193 131.206 46.2182 131.501C45.002 131.868 43.7246 131.915 42.489 131.637C41.0695 131.314 39.7533 130.58 38.6756 129.51C38.389 129.225 38.1195 128.92 37.8689 128.596C37.6189 128.257 37.3915 127.898 37.1885 127.523C36.9793 127.142 36.7921 126.747 36.6279 126.34C36.4734 125.92 36.3457 125.487 36.2456 125.047C36.0327 124.145 35.9539 123.21 36.0124 122.28C36.0775 121.323 36.273 120.382 36.5923 119.489C36.9332 118.605 37.3919 117.783 37.9531 117.048C38.5034 116.343 39.1533 115.739 39.8776 115.261C40.2297 115.027 40.5955 114.82 40.9727 114.639C41.3471 114.474 41.7314 114.336 42.1229 114.229C42.3128 114.166 42.5067 114.119 42.7029 114.089C42.8973 114.061 43.0917 114.018 43.2861 113.996C45.1209 113.809 46.9598 114.302 48.5121 115.397C49.4739 116.089 50.2918 116.997 50.9117 118.063C51.5316 119.129 51.9395 120.327 52.1085 121.58C52.2262 122.432 52.2262 123.298 52.1085 124.15C52.0705 124.46 52.012 124.767 51.9335 125.068C51.9044 125.2 51.8785 125.322 51.8493 125.426L51.7521 125.719C51.6938 125.883 51.6484 126.015 51.616 126.112C51.6024 126.155 51.5851 126.197 51.5642 126.237Z" fill="#263238"/>
<g opacity="0.3">
<path opacity="0.3" d="M51.4767 126.283C51.4282 126.265 51.5318 125.89 51.6452 125.211C51.8057 124.253 51.8298 123.272 51.7165 122.305C51.6397 121.646 51.4985 120.998 51.2953 120.372C51.0581 119.66 50.739 118.985 50.346 118.363C49.9134 117.679 49.3928 117.067 48.8005 116.548C48.4879 116.274 48.1564 116.028 47.8091 115.812C47.0939 115.364 46.3183 115.046 45.5119 114.868C45.1211 114.781 44.7245 114.728 44.3261 114.711C43.9413 114.69 43.5555 114.703 43.1726 114.75C42.8043 114.791 42.4393 114.863 42.0808 114.965C41.4136 115.152 40.7711 115.433 40.1692 115.801C39.6437 116.128 39.1517 116.516 38.7014 116.959C38.0476 117.612 37.4881 118.371 37.0426 119.21C36.7186 119.807 36.5792 120.165 36.5339 120.147C36.4885 120.129 36.5695 119.743 36.832 119.075C37.2135 118.148 37.7474 117.307 38.4066 116.594C38.8629 116.099 39.3708 115.664 39.9197 115.301C40.5519 114.884 41.2319 114.563 41.9414 114.346C42.3249 114.229 42.7159 114.144 43.1111 114.093C43.5225 114.034 43.9375 114.014 44.352 114.032C44.7873 114.046 45.2207 114.1 45.648 114.193C46.0824 114.287 46.5093 114.42 46.9246 114.589C47.3383 114.762 47.7391 114.97 48.1234 115.211C48.4976 115.446 48.8541 115.714 49.1893 116.012C49.511 116.3 49.8121 116.616 50.09 116.955C50.3585 117.281 50.6043 117.629 50.8255 117.995C51.5911 119.262 52.0506 120.724 52.1604 122.241C52.2349 123.256 52.1394 124.277 51.8785 125.254C51.6874 125.954 51.5091 126.298 51.4767 126.283Z" fill="black"/>
</g>
<path d="M83.7662 141.848H63.4971V145.908H83.7662V141.848Z" fill="#44B1C0"/>
<path d="M65.4832 145.936C65.3708 144.596 65.3708 143.248 65.4832 141.908C65.5955 143.248 65.5955 144.596 65.4832 145.936Z" fill="#263238"/>
<path d="M64.3751 145.936C64.2627 144.596 64.2627 143.248 64.3751 141.908C64.4874 143.248 64.4874 144.596 64.3751 145.936Z" fill="#263238"/>
<path d="M67.9163 145.936C67.8039 144.596 67.8039 143.248 67.9163 141.908C68.0287 143.248 68.0287 144.596 67.9163 145.936Z" fill="#263238"/>
<path d="M66.8082 145.936C66.6959 144.596 66.6959 143.248 66.8082 141.908C66.9205 143.248 66.9205 144.596 66.8082 145.936Z" fill="#263238"/>
<path d="M70.3528 145.936C70.2405 144.596 70.2405 143.248 70.3528 141.908C70.4651 143.248 70.4651 144.596 70.3528 145.936Z" fill="#263238"/>
<path d="M69.2447 145.936C69.1323 144.596 69.1323 143.248 69.2447 141.908C69.3571 143.248 69.3571 144.596 69.2447 145.936Z" fill="#263238"/>
<path d="M72.7762 145.936C72.6639 144.596 72.6639 143.248 72.7762 141.908C72.8885 143.248 72.8885 144.596 72.7762 145.936Z" fill="#263238"/>
<path d="M71.678 145.936C71.5657 144.596 71.5657 143.248 71.678 141.908C71.7945 143.248 71.7945 144.597 71.678 145.936Z" fill="#263238"/>
<path d="M75.2225 145.936C75.1101 144.596 75.1101 143.248 75.2225 141.908C75.3349 143.248 75.3349 144.596 75.2225 145.936Z" fill="#263238"/>
<path d="M74.1144 145.936C74.0021 144.596 74.0021 143.248 74.1144 141.908C74.2267 143.248 74.2267 144.596 74.1144 145.936Z" fill="#263238"/>
<path d="M77.6589 145.936C77.5466 144.596 77.5466 143.248 77.6589 141.908C77.7712 143.248 77.7712 144.596 77.6589 145.936Z" fill="#263238"/>
<path d="M76.5508 145.936C76.4385 144.596 76.4385 143.248 76.5508 141.908C76.6632 143.248 76.6632 144.596 76.5508 145.936Z" fill="#263238"/>
<path d="M80.0954 145.936C79.983 144.596 79.983 143.248 80.0954 141.908C80.2078 143.248 80.2078 144.596 80.0954 145.936Z" fill="#263238"/>
<path d="M78.9841 145.936C78.8718 144.596 78.8718 143.248 78.9841 141.908C79.0964 143.248 79.0964 144.596 78.9841 145.936Z" fill="#263238"/>
<path d="M82.5286 145.936C82.4162 144.596 82.4162 143.248 82.5286 141.908C82.641 143.248 82.641 144.596 82.5286 145.936Z" fill="#263238"/>
<path d="M81.4205 145.936C81.3082 144.596 81.3082 143.248 81.4205 141.908C81.5328 143.248 81.5328 144.596 81.4205 145.936Z" fill="#263238"/>
<path d="M83.7631 141.848C83.7631 141.902 79.1947 141.942 73.5604 141.942C67.9261 141.942 63.3545 141.902 63.3545 141.848C63.3545 141.794 67.9229 141.755 73.5604 141.755C79.1979 141.755 83.7631 141.798 83.7631 141.848Z" fill="#263238"/>
<path d="M82.1754 145.875H61.9061V149.935H82.1754V145.875Z" fill="#44B1C0"/>
<path d="M63.8923 149.964C63.78 148.624 63.78 147.276 63.8923 145.936C64.0046 147.276 64.0046 148.624 63.8923 149.964Z" fill="#263238"/>
<path d="M62.7842 149.964C62.6719 148.624 62.6719 147.276 62.7842 145.936C62.8965 147.276 62.8965 148.624 62.7842 149.964Z" fill="#263238"/>
<path d="M66.3287 149.964C66.2164 148.624 66.2164 147.276 66.3287 145.936C66.441 147.276 66.441 148.624 66.3287 149.964Z" fill="#263238"/>
<path d="M65.2207 149.964C65.1084 148.624 65.1084 147.276 65.2207 145.936C65.333 147.276 65.333 148.624 65.2207 149.964Z" fill="#263238"/>
<path d="M68.7652 149.964C68.6528 148.624 68.6528 147.276 68.7652 145.936C68.8776 147.276 68.8776 148.624 68.7652 149.964Z" fill="#263238"/>
<path d="M67.6539 149.964C67.5415 148.624 67.5415 147.276 67.6539 145.936C67.7663 147.276 67.7663 148.624 67.6539 149.964Z" fill="#263238"/>
<path d="M71.1984 149.964C71.086 148.624 71.086 147.276 71.1984 145.936C71.3108 147.276 71.3108 148.624 71.1984 149.964Z" fill="#263238"/>
<path d="M70.0903 149.964C69.978 148.624 69.978 147.276 70.0903 145.936C70.2026 147.276 70.2026 148.624 70.0903 149.964Z" fill="#263238"/>
<path d="M73.6349 149.964C73.5226 148.624 73.5226 147.276 73.6349 145.936C73.7472 147.276 73.7472 148.624 73.6349 149.964Z" fill="#263238"/>
<path d="M72.5269 149.964C72.4146 148.624 72.4146 147.276 72.5269 145.936C72.6392 147.276 72.6392 148.624 72.5269 149.964Z" fill="#263238"/>
<path d="M76.0714 149.964C75.959 148.624 75.959 147.276 76.0714 145.936C76.1837 147.276 76.1837 148.624 76.0714 149.964Z" fill="#263238"/>
<path d="M74.96 149.964C74.8476 148.624 74.8476 147.276 74.96 145.936C75.0724 147.276 75.0724 148.624 74.96 149.964Z" fill="#263238"/>
<path d="M78.5045 149.964C78.3922 148.624 78.3922 147.276 78.5045 145.936C78.6168 147.276 78.6168 148.624 78.5045 149.964Z" fill="#263238"/>
<path d="M77.3965 149.964C77.2842 148.624 77.2842 147.276 77.3965 145.936C77.5088 147.276 77.5088 148.624 77.3965 149.964Z" fill="#263238"/>
<path d="M80.941 149.964C80.8287 148.624 80.8287 147.276 80.941 145.936C81.0533 147.276 81.0533 148.624 80.941 149.964Z" fill="#263238"/>
<path d="M79.833 149.964C79.7207 148.624 79.7207 147.276 79.833 145.936C79.9453 147.276 79.9453 148.624 79.833 149.964Z" fill="#263238"/>
<path d="M82.1722 145.894C82.1722 145.948 77.6136 145.987 71.9922 145.987C66.3709 145.987 61.809 145.948 61.809 145.894C61.809 145.84 66.3676 145.8 71.9922 145.8C77.6168 145.8 82.1722 145.826 82.1722 145.894Z" fill="#263238"/>
<path d="M80.8729 149.964H60.6038V154.024H80.8729V149.964Z" fill="#44B1C0"/>
<path d="M62.5898 154.053C62.4775 152.713 62.4775 151.365 62.5898 150.025C62.7021 151.365 62.7021 152.713 62.5898 154.053Z" fill="#263238"/>
<path d="M61.4818 154.053C61.3694 152.713 61.3694 151.365 61.4818 150.025C61.5941 151.365 61.5941 152.713 61.4818 154.053Z" fill="#263238"/>
<path d="M65.0263 154.053C64.9139 152.713 64.9139 151.365 65.0263 150.025C65.1387 151.365 65.1387 152.713 65.0263 154.053Z" fill="#263238"/>
<path d="M63.9182 154.053C63.8059 152.713 63.8059 151.365 63.9182 150.025C64.0305 151.365 64.0305 152.713 63.9182 154.053Z" fill="#263238"/>
<path d="M67.4628 154.053C67.3505 152.713 67.3505 151.365 67.4628 150.025C67.5751 151.365 67.5751 152.713 67.4628 154.053Z" fill="#263238"/>
<path d="M66.3546 154.053C66.2423 152.713 66.2423 151.365 66.3546 150.025C66.4669 151.365 66.4669 152.713 66.3546 154.053Z" fill="#263238"/>
<path d="M69.896 154.053C69.7837 152.713 69.7837 151.365 69.896 150.025C70.0083 151.365 70.0083 152.713 69.896 154.053Z" fill="#263238"/>
<path d="M68.7879 154.053C68.6755 152.713 68.6755 151.365 68.7879 150.025C68.9003 151.365 68.9003 152.713 68.7879 154.053Z" fill="#263238"/>
<path d="M72.3324 154.053C72.2201 152.713 72.2201 151.365 72.3324 150.025C72.4447 151.365 72.4447 152.713 72.3324 154.053Z" fill="#263238"/>
<path d="M71.2244 154.053C71.1121 152.713 71.1121 151.365 71.2244 150.025C71.3367 151.365 71.3367 152.713 71.2244 154.053Z" fill="#263238"/>
<path d="M74.7689 154.053C74.6565 152.713 74.6565 151.365 74.7689 150.025C74.8812 151.365 74.8812 152.713 74.7689 154.053Z" fill="#263238"/>
<path d="M73.6575 154.053C73.5452 152.713 73.5452 151.365 73.6575 150.025C73.7742 151.364 73.7742 152.713 73.6575 154.053Z" fill="#263238"/>
<path d="M77.2021 154.053C77.0898 152.713 77.0898 151.365 77.2021 150.025C77.3145 151.365 77.3145 152.713 77.2021 154.053Z" fill="#263238"/>
<path d="M76.094 154.053C75.9817 152.713 75.9817 151.365 76.094 150.025C76.2063 151.365 76.2063 152.713 76.094 154.053Z" fill="#263238"/>
<path d="M79.6385 154.053C79.5262 152.713 79.5262 151.365 79.6385 150.025C79.7509 151.365 79.7509 152.713 79.6385 154.053Z" fill="#263238"/>
<path d="M78.5305 154.053C78.4182 152.713 78.4182 151.365 78.5305 150.025C78.6428 151.365 78.6428 152.713 78.5305 154.053Z" fill="#263238"/>
<path d="M80.8762 149.965C80.8762 150.018 76.3176 150.058 70.6962 150.058C65.0748 150.058 60.5129 150.018 60.5129 149.965C60.5129 149.911 65.0716 149.871 70.6962 149.871C76.3208 149.871 80.8762 149.914 80.8762 149.965Z" fill="#263238"/>
<g opacity="0.3">
<path opacity="0.3" d="M64.6763 145.918C67.7448 146.691 70.9022 146.944 74.0398 146.669C77.1502 146.44 80.2898 145.936 83.4066 145.979L64.6763 145.918Z" fill="black"/>
</g>
<g opacity="0.3">
<path opacity="0.3" d="M60.8531 150.018C63.9217 150.791 67.0791 151.044 70.2167 150.768C73.3271 150.539 76.4666 150.035 79.5835 150.078L60.8531 150.018Z" fill="black"/>
</g>
<path d="M63.9442 142.185C64.0855 142.185 64.2001 142.143 64.2001 142.091C64.2001 142.04 64.0855 141.998 63.9442 141.998C63.8028 141.998 63.6882 142.04 63.6882 142.091C63.6882 142.143 63.8028 142.185 63.9442 142.185Z" fill="white"/>
<path d="M67.0123 142.102C66.241 142.226 65.4574 142.226 64.686 142.102C65.4574 141.977 66.241 141.977 67.0123 142.102Z" fill="white"/>
<path d="M70.2297 142.102C69.4583 142.226 68.6747 142.226 67.9033 142.102C68.6747 141.977 69.4583 141.977 70.2297 142.102Z" fill="white"/>
<path d="M145.757 138.36C146.494 140.515 146.636 142.864 146.163 145.108C145.69 147.352 144.624 149.391 143.1 150.967C141.576 152.542 139.663 153.584 137.602 153.96C135.541 154.335 133.426 154.028 131.523 153.077C129.621 152.126 128.017 150.573 126.915 148.616C125.812 146.659 125.261 144.386 125.331 142.083C125.401 139.78 126.088 137.552 127.307 135.68C128.525 133.809 130.219 132.378 132.175 131.569C134.792 130.483 137.693 130.589 140.24 131.862C142.787 133.136 144.772 135.473 145.757 138.36Z" fill="#44B1C0"/>
<path d="M143.408 139.335C143.97 140.978 144.079 142.768 143.719 144.478C143.359 146.189 142.547 147.743 141.386 148.944C140.225 150.146 138.767 150.94 137.196 151.227C135.626 151.514 134.013 151.28 132.563 150.556C131.113 149.831 129.89 148.649 129.05 147.157C128.21 145.666 127.789 143.933 127.842 142.178C127.895 140.423 128.418 138.725 129.346 137.298C130.275 135.871 131.566 134.781 133.056 134.164C134.043 133.753 135.095 133.561 136.149 133.599C137.204 133.636 138.242 133.903 139.203 134.383C140.165 134.863 141.031 135.548 141.752 136.398C142.474 137.247 143.036 138.245 143.408 139.335Z" fill="#44B1C0"/>
<path d="M143.408 139.335C143.384 139.294 143.364 139.251 143.346 139.207L143.187 138.824L143.071 138.542C143.025 138.438 142.964 138.335 142.906 138.217C142.772 137.942 142.622 137.678 142.455 137.427C142.014 136.727 141.478 136.105 140.868 135.583C139.416 134.313 137.609 133.64 135.756 133.678C133.904 133.717 132.121 134.465 130.713 135.793C130.425 136.063 130.155 136.354 129.903 136.665C129.777 136.826 129.664 136.998 129.541 137.162C129.422 137.331 129.314 137.507 129.217 137.691C129.003 138.057 128.81 138.438 128.64 138.831C128.48 139.239 128.345 139.658 128.235 140.086C128.003 140.963 127.903 141.875 127.937 142.788C127.995 144.681 128.614 146.501 129.699 147.97C130.218 148.682 130.839 149.296 131.536 149.789C131.874 150.03 132.226 150.248 132.589 150.439C132.946 150.618 133.313 150.77 133.688 150.897C134.06 151.014 134.439 151.103 134.822 151.165C135.198 151.214 135.577 151.237 135.956 151.233C137.379 151.214 138.772 150.779 139.993 149.971C140.962 149.324 141.797 148.457 142.441 147.428C143.086 146.4 143.525 145.232 143.732 144.003C143.878 143.166 143.91 142.309 143.826 141.462C143.8 141.153 143.756 140.846 143.693 140.543C143.667 140.411 143.651 140.286 143.625 140.186C143.599 140.086 143.566 139.979 143.544 139.889C143.498 139.718 143.463 139.585 143.434 139.485C143.42 139.44 143.41 139.393 143.404 139.346C143.423 139.388 143.438 139.433 143.45 139.478C143.482 139.578 143.524 139.71 143.576 139.878L143.664 140.175C143.693 140.286 143.716 140.407 143.741 140.532C143.812 140.836 143.862 141.146 143.89 141.458C143.989 142.312 143.967 143.178 143.826 144.024C143.626 145.273 143.188 146.461 142.54 147.508C141.892 148.556 141.049 149.439 140.067 150.1C138.488 151.149 136.635 151.584 134.806 151.333C134.415 151.273 134.028 151.183 133.649 151.065C133.26 150.942 132.879 150.791 132.508 150.614C132.137 150.422 131.778 150.202 131.433 149.957C130.721 149.454 130.087 148.828 129.557 148.102C129.014 147.351 128.577 146.514 128.261 145.618C127.966 144.715 127.796 143.768 127.755 142.809C127.723 141.877 127.827 140.945 128.063 140.05C128.271 139.179 128.612 138.354 129.071 137.609C129.171 137.42 129.285 137.241 129.411 137.073C129.534 136.901 129.651 136.716 129.78 136.565C130.037 136.249 130.314 135.952 130.61 135.679C131.715 134.643 133.05 133.951 134.478 133.674C135.61 133.459 136.77 133.512 137.882 133.83C138.993 134.147 140.031 134.721 140.926 135.515C141.537 136.05 142.069 136.687 142.504 137.402C142.67 137.655 142.818 137.923 142.944 138.202C143.003 138.324 143.061 138.431 143.106 138.535L143.213 138.824L143.359 139.214C143.379 139.253 143.395 139.293 143.408 139.335Z" fill="#263238"/>
<g opacity="0.3">
<path opacity="0.3" d="M143.379 139.46C143.333 139.482 143.178 139.128 142.841 138.542C142.37 137.719 141.787 136.98 141.114 136.351C140.651 135.926 140.148 135.557 139.614 135.25C138.998 134.905 138.345 134.649 137.67 134.489C137.308 134.399 136.941 134.341 136.571 134.314C136.186 134.28 135.8 134.28 135.415 134.314C135.018 134.348 134.623 134.415 134.235 134.514C133.837 134.622 133.446 134.76 133.066 134.928C132.688 135.105 132.322 135.312 131.971 135.547C131.629 135.775 131.304 136.033 130.999 136.319C130.704 136.592 130.43 136.891 130.179 137.212C129.933 137.52 129.709 137.847 129.508 138.191C129.135 138.828 128.838 139.515 128.624 140.236C128.437 140.869 128.314 141.524 128.258 142.187C128.181 143.156 128.239 144.132 128.429 145.082C128.565 145.761 128.679 146.129 128.633 146.154C128.588 146.179 128.413 145.833 128.199 145.154C127.917 144.181 127.801 143.16 127.856 142.141C127.891 141.435 127.999 140.736 128.18 140.057C128.387 139.277 128.689 138.532 129.077 137.841C129.285 137.464 129.519 137.106 129.777 136.769C130.044 136.417 130.336 136.089 130.652 135.79C130.977 135.479 131.324 135.197 131.689 134.946C132.444 134.432 133.27 134.058 134.135 133.838C134.959 133.625 135.809 133.559 136.652 133.642C137.79 133.749 138.894 134.121 139.892 134.732C140.45 135.077 140.969 135.492 141.441 135.968C142.121 136.656 142.68 137.477 143.09 138.388C143.33 139.046 143.408 139.432 143.379 139.46Z" fill="black"/>
</g>
<path d="M176.374 141.826H156.105V145.886H176.374V141.826Z" fill="#44B1C0"/>
<path d="M158.091 145.915C157.979 144.575 157.979 143.227 158.091 141.887C158.204 143.227 158.204 144.575 158.091 145.915Z" fill="#263238"/>
<path d="M156.983 145.915C156.871 144.575 156.871 143.227 156.983 141.887C157.096 143.227 157.096 144.575 156.983 145.915Z" fill="#263238"/>
<path d="M160.528 145.915C160.415 144.575 160.415 143.227 160.528 141.887C160.64 143.227 160.64 144.575 160.528 145.915Z" fill="#263238"/>
<path d="M159.42 145.915C159.307 144.575 159.307 143.227 159.42 141.887C159.532 143.227 159.532 144.575 159.42 145.915Z" fill="#263238"/>
<path d="M162.964 145.915C162.852 144.575 162.852 143.227 162.964 141.887C163.077 143.227 163.077 144.575 162.964 145.915Z" fill="#263238"/>
<path d="M161.853 145.915C161.74 144.575 161.74 143.227 161.853 141.887C161.965 143.227 161.965 144.575 161.853 145.915Z" fill="#263238"/>
<path d="M165.397 145.915C165.285 144.575 165.285 143.227 165.397 141.887C165.51 143.227 165.51 144.575 165.397 145.915Z" fill="#263238"/>
<path d="M164.289 145.915C164.177 144.575 164.177 143.227 164.289 141.887C164.402 143.227 164.402 144.575 164.289 145.915Z" fill="#263238"/>
<path d="M167.834 145.915C167.722 144.575 167.722 143.227 167.834 141.887C167.946 143.227 167.946 144.575 167.834 145.915Z" fill="#263238"/>
<path d="M166.735 145.915C166.623 144.575 166.623 143.227 166.735 141.887C166.848 143.227 166.848 144.575 166.735 145.915Z" fill="#263238"/>
<path d="M170.27 145.915C170.154 144.575 170.154 143.226 170.27 141.887C170.383 143.227 170.383 144.575 170.27 145.915Z" fill="#263238"/>
<path d="M169.159 145.915C169.047 144.575 169.047 143.227 169.159 141.887C169.271 143.227 169.271 144.575 169.159 145.915Z" fill="#263238"/>
<path d="M172.703 145.915C172.591 144.575 172.591 143.227 172.703 141.887C172.816 143.227 172.816 144.575 172.703 145.915Z" fill="#263238"/>
<path d="M171.595 145.915C171.483 144.575 171.483 143.227 171.595 141.887C171.708 143.227 171.708 144.575 171.595 145.915Z" fill="#263238"/>
<path d="M175.14 145.915C175.028 144.575 175.028 143.227 175.14 141.887C175.252 143.227 175.252 144.575 175.14 145.915Z" fill="#263238"/>
<path d="M174.032 145.915C173.92 144.575 173.92 143.227 174.032 141.887C174.144 143.227 174.144 144.575 174.032 145.915Z" fill="#263238"/>
<path d="M176.374 141.827C176.374 141.881 171.806 141.92 166.169 141.92C160.531 141.92 155.963 141.881 155.963 141.827C155.963 141.773 160.531 141.733 166.169 141.733C171.806 141.733 176.374 141.777 176.374 141.827Z" fill="#263238"/>
<path d="M174.787 145.854H154.518V149.914H174.787V145.854Z" fill="#44B1C0"/>
<path d="M156.504 149.943C156.391 148.603 156.391 147.254 156.504 145.915C156.616 147.254 156.616 148.603 156.504 149.943Z" fill="#263238"/>
<path d="M155.396 149.943C155.283 148.603 155.283 147.254 155.396 145.915C155.508 147.254 155.508 148.603 155.396 149.943Z" fill="#263238"/>
<path d="M158.94 149.943C158.828 148.603 158.828 147.254 158.94 145.915C159.052 147.254 159.052 148.603 158.94 149.943Z" fill="#263238"/>
<path d="M157.829 149.943C157.717 148.603 157.717 147.254 157.829 145.915C157.941 147.254 157.941 148.603 157.829 149.943Z" fill="#263238"/>
<path d="M161.373 149.943C161.261 148.603 161.261 147.254 161.373 145.915C161.486 147.254 161.486 148.603 161.373 149.943Z" fill="#263238"/>
<path d="M160.256 149.943C160.143 148.603 160.143 147.254 160.256 145.915C160.368 147.254 160.368 148.603 160.256 149.943Z" fill="#263238"/>
<path d="M163.82 149.943C163.707 148.603 163.707 147.254 163.82 145.915C163.932 147.254 163.932 148.603 163.82 149.943Z" fill="#263238"/>
<path d="M162.702 149.943C162.589 148.603 162.589 147.254 162.702 145.915C162.814 147.254 162.814 148.603 162.702 149.943Z" fill="#263238"/>
<path d="M166.243 149.943C166.131 148.603 166.131 147.254 166.243 145.915C166.36 147.254 166.36 148.603 166.243 149.943Z" fill="#263238"/>
<path d="M165.135 149.943C165.023 148.603 165.023 147.254 165.135 145.915C165.247 147.254 165.247 148.603 165.135 149.943Z" fill="#263238"/>
<path d="M168.679 149.943C168.567 148.603 168.567 147.254 168.679 145.915C168.792 147.254 168.792 148.603 168.679 149.943Z" fill="#263238"/>
<path d="M167.571 149.943C167.459 148.603 167.459 147.254 167.571 145.915C167.684 147.254 167.684 148.603 167.571 149.943Z" fill="#263238"/>
<path d="M171.116 149.943C171.004 148.603 171.004 147.254 171.116 145.915C171.228 147.254 171.228 148.603 171.116 149.943Z" fill="#263238"/>
<path d="M170.008 149.943C169.895 148.603 169.895 147.254 170.008 145.915C170.12 147.254 170.12 148.603 170.008 149.943Z" fill="#263238"/>
<path d="M173.539 149.943C173.427 148.603 173.427 147.254 173.539 145.915C173.652 147.254 173.652 148.603 173.539 149.943Z" fill="#263238"/>
<path d="M172.441 149.943C172.329 148.603 172.329 147.254 172.441 145.915C172.553 147.254 172.553 148.603 172.441 149.943Z" fill="#263238"/>
<path d="M174.784 145.854C174.784 145.908 170.228 145.948 164.604 145.948C158.979 145.948 154.424 145.894 154.424 145.854C154.424 145.815 158.982 145.761 164.604 145.761C170.225 145.761 174.784 145.804 174.784 145.854Z" fill="#263238"/>
<path d="M173.484 149.943H153.215V154.003H173.484V149.943Z" fill="#44B1C0"/>
<path d="M155.201 154.031C155.089 152.691 155.089 151.343 155.201 150.003C155.313 151.343 155.313 152.691 155.201 154.031Z" fill="#263238"/>
<path d="M154.1 154.031C153.987 152.691 153.987 151.343 154.1 150.003C154.212 151.343 154.212 152.691 154.1 154.031Z" fill="#263238"/>
<path d="M157.638 154.031C157.525 152.691 157.525 151.343 157.638 150.003C157.75 151.343 157.75 152.691 157.638 154.031Z" fill="#263238"/>
<path d="M156.53 154.031C156.413 152.692 156.413 151.343 156.53 150.003C156.642 151.343 156.642 152.691 156.53 154.031Z" fill="#263238"/>
<path d="M160.071 154.031C159.958 152.691 159.958 151.343 160.071 150.003C160.183 151.343 160.183 152.691 160.071 154.031Z" fill="#263238"/>
<path d="M158.96 154.031C158.847 152.691 158.847 151.343 158.96 150.003C159.072 151.343 159.072 152.691 158.96 154.031Z" fill="#263238"/>
<path d="M162.524 154.031C162.411 152.691 162.411 151.343 162.524 150.003C162.636 151.343 162.636 152.691 162.524 154.031Z" fill="#263238"/>
<path d="M161.399 154.031C161.287 152.691 161.287 151.343 161.399 150.003C161.512 151.343 161.512 152.691 161.399 154.031Z" fill="#263238"/>
<path d="M164.944 154.031C164.831 152.691 164.831 151.343 164.944 150.003C165.056 151.343 165.056 152.691 164.944 154.031Z" fill="#263238"/>
<path d="M163.82 154.031C163.707 152.691 163.707 151.343 163.82 150.003C163.932 151.343 163.932 152.691 163.82 154.031Z" fill="#263238"/>
<path d="M167.384 154.031C167.271 152.691 167.271 151.343 167.384 150.003C167.496 151.343 167.496 152.691 167.384 154.031Z" fill="#263238"/>
<path d="M166.269 154.031C166.157 152.691 166.157 151.343 166.269 150.003C166.381 151.343 166.381 152.691 166.269 154.031Z" fill="#263238"/>
<path d="M169.813 154.031C169.701 152.691 169.701 151.343 169.813 150.003C169.926 151.343 169.926 152.691 169.813 154.031Z" fill="#263238"/>
<path d="M168.705 154.031C168.593 152.691 168.593 151.343 168.705 150.003C168.818 151.343 168.818 152.691 168.705 154.031Z" fill="#263238"/>
<path d="M172.243 154.031C172.127 152.692 172.127 151.343 172.243 150.003C172.356 151.343 172.356 152.691 172.243 154.031Z" fill="#263238"/>
<path d="M171.139 154.031C171.026 152.691 171.026 151.343 171.139 150.003C171.251 151.343 171.251 152.691 171.139 154.031Z" fill="#263238"/>
<path d="M173.484 149.943C173.484 149.997 168.926 150.036 163.301 150.036C157.677 150.036 153.121 149.997 153.121 149.943C153.121 149.889 157.68 149.85 163.301 149.85C168.922 149.85 173.484 149.893 173.484 149.943Z" fill="#263238"/>
<g opacity="0.3">
<path opacity="0.3" d="M157.271 145.893C160.339 146.666 163.495 146.919 166.632 146.644C169.742 146.415 172.885 145.911 176.002 145.954L157.271 145.893Z" fill="black"/>
</g>
<g opacity="0.3">
<path opacity="0.3" d="M153.452 149.996C156.519 150.769 159.675 151.022 162.812 150.747C165.922 150.518 169.065 150.014 172.182 150.057L153.452 149.996Z" fill="black"/>
</g>
<path d="M156.555 142.163C156.697 142.163 156.811 142.121 156.811 142.07C156.811 142.018 156.697 141.976 156.555 141.976C156.414 141.976 156.3 142.018 156.3 142.07C156.3 142.121 156.414 142.163 156.555 142.163Z" fill="white"/>
<path d="M159.624 142.08C158.852 142.205 158.069 142.205 157.297 142.08C158.069 141.956 158.852 141.956 159.624 142.08Z" fill="white"/>
<path d="M162.848 142.08C162.076 142.205 161.293 142.205 160.521 142.08C161.293 141.956 162.076 141.956 162.848 142.08Z" fill="white"/>
<path d="M53.9197 133.699H33.6504V137.759H53.9197V133.699Z" fill="#44B1C0"/>
<path d="M35.6365 137.788C35.5242 136.448 35.5242 135.1 35.6365 133.76C35.7488 135.1 35.7488 136.448 35.6365 137.788Z" fill="#263238"/>
<path d="M34.5446 137.788C34.4322 136.448 34.4322 135.1 34.5446 133.76C34.657 135.1 34.657 136.448 34.5446 137.788Z" fill="#263238"/>
<path d="M38.0729 137.788C37.9606 136.448 37.9606 135.1 38.0729 133.76C38.1853 135.1 38.1853 136.448 38.0729 137.788Z" fill="#263238"/>
<path d="M36.9648 137.788C36.8525 136.448 36.8525 135.1 36.9648 133.76C37.0771 135.1 37.0771 136.448 36.9648 137.788Z" fill="#263238"/>
<path d="M40.5094 137.788C40.3971 136.448 40.3971 135.1 40.5094 133.76C40.6217 135.1 40.6217 136.448 40.5094 137.788Z" fill="#263238"/>
<path d="M39.4045 137.788C39.2922 136.448 39.2922 135.1 39.4045 133.76C39.5168 135.1 39.5168 136.448 39.4045 137.788Z" fill="#263238"/>
<path d="M42.9426 137.788C42.8303 136.448 42.8303 135.1 42.9426 133.76C43.0549 135.1 43.0549 136.448 42.9426 137.788Z" fill="#263238"/>
<path d="M41.8345 137.788C41.7221 136.448 41.7221 135.1 41.8345 133.76C41.9469 135.1 41.9469 136.448 41.8345 137.788Z" fill="#263238"/>
<path d="M45.3792 137.788C45.2668 136.448 45.2668 135.1 45.3792 133.76C45.4915 135.1 45.4915 136.448 45.3792 137.788Z" fill="#263238"/>
<path d="M44.2645 137.788C44.1522 136.448 44.1522 135.1 44.2645 133.76C44.3768 135.1 44.3768 136.448 44.2645 137.788Z" fill="#263238"/>
<path d="M47.8285 137.788C47.7162 136.448 47.7162 135.1 47.8285 133.76C47.9408 135.1 47.9408 136.448 47.8285 137.788Z" fill="#263238"/>
<path d="M46.7042 137.788C46.5919 136.448 46.5919 135.1 46.7042 133.76C46.8208 135.099 46.8208 136.448 46.7042 137.788Z" fill="#263238"/>
<path d="M50.2488 137.788C50.1365 136.448 50.1365 135.1 50.2488 133.76C50.3611 135.1 50.3611 136.448 50.2488 137.788Z" fill="#263238"/>
<path d="M49.1406 137.788C49.0283 136.448 49.0283 135.1 49.1406 133.76C49.2529 135.1 49.2529 136.448 49.1406 137.788Z" fill="#263238"/>
<path d="M52.6885 137.788C52.5762 136.448 52.5762 135.1 52.6885 133.76C52.8008 135.1 52.8008 136.448 52.6885 137.788Z" fill="#263238"/>
<path d="M51.5771 137.788C51.4648 136.448 51.4648 135.1 51.5771 133.76C51.6895 135.1 51.6895 136.448 51.5771 137.788Z" fill="#263238"/>
<path d="M53.9196 133.7C53.9196 133.753 49.3609 133.793 43.7396 133.793C38.1182 133.793 33.5725 133.743 33.5725 133.7C33.5725 133.656 38.1312 133.606 43.7557 133.606C49.3803 133.606 53.9196 133.649 53.9196 133.7Z" fill="#263238"/>
<path d="M52.5945 137.823H32.3252V141.883H52.5945V137.823Z" fill="#44B1C0"/>
<path d="M34.3113 141.912C34.199 140.572 34.199 139.224 34.3113 137.884C34.4237 139.224 34.4237 140.572 34.3113 141.912Z" fill="#263238"/>
<path d="M33.2032 141.912C33.0909 140.572 33.0909 139.224 33.2032 137.884C33.3156 139.224 33.3156 140.572 33.2032 141.912Z" fill="#263238"/>
<path d="M36.7478 141.912C36.6355 140.572 36.6355 139.224 36.7478 137.884C36.8601 139.224 36.8601 140.572 36.7478 141.912Z" fill="#263238"/>
<path d="M35.6365 141.912C35.5242 140.572 35.5242 139.224 35.6365 137.884C35.7488 139.224 35.7488 140.572 35.6365 141.912Z" fill="#263238"/>
<path d="M39.181 141.912C39.0686 140.572 39.0686 139.224 39.181 137.884C39.2934 139.224 39.2934 140.572 39.181 141.912Z" fill="#263238"/>
<path d="M38.0729 141.912C37.9606 140.572 37.9606 139.224 38.0729 137.884C38.1853 139.224 38.1853 140.572 38.0729 141.912Z" fill="#263238"/>
<path d="M41.6174 141.912C41.5051 140.572 41.5051 139.224 41.6174 137.884C41.7297 139.224 41.7297 140.572 41.6174 141.912Z" fill="#263238"/>
<path d="M40.5094 141.912C40.3971 140.572 40.3971 139.224 40.5094 137.884C40.6217 139.224 40.6217 140.572 40.5094 141.912Z" fill="#263238"/>
<path d="M44.0539 141.912C43.9373 140.572 43.9373 139.224 44.0539 137.884C44.1663 139.224 44.1663 140.572 44.0539 141.912Z" fill="#263238"/>
<path d="M42.9426 141.912C42.8303 140.572 42.8303 139.224 42.9426 137.884C43.0549 139.224 43.0549 140.572 42.9426 141.912Z" fill="#263238"/>
<path d="M46.4871 141.912C46.3747 140.572 46.3747 139.224 46.4871 137.884C46.5995 139.224 46.5995 140.572 46.4871 141.912Z" fill="#263238"/>
<path d="M45.3792 141.912C45.2668 140.572 45.2668 139.224 45.3792 137.884C45.4915 139.224 45.4915 140.572 45.3792 141.912Z" fill="#263238"/>
<path d="M48.9236 141.912C48.8113 140.572 48.8113 139.224 48.9236 137.884C49.0359 139.224 49.0359 140.572 48.9236 141.912Z" fill="#263238"/>
<path d="M47.8285 141.912C47.7162 140.572 47.7162 139.224 47.8285 137.884C47.9408 139.224 47.9408 140.572 47.8285 141.912Z" fill="#263238"/>
<path d="M51.3568 141.912C51.2445 140.572 51.2445 139.224 51.3568 137.884C51.4691 139.224 51.4691 140.572 51.3568 141.912Z" fill="#263238"/>
<path d="M50.2488 141.912C50.1365 140.572 50.1365 139.224 50.2488 137.884C50.3611 139.224 50.3611 140.572 50.2488 141.912Z" fill="#263238"/>
<path d="M52.5945 137.824C52.5945 137.878 48.0358 137.917 42.4112 137.917C36.7866 137.917 32.2312 137.878 32.2312 137.824C32.2312 137.77 36.7899 137.731 42.4112 137.731C48.0326 137.731 52.5945 137.774 52.5945 137.824Z" fill="#263238"/>
<path d="M54.2501 141.912H33.9808V145.972H54.2501V141.912Z" fill="#44B1C0"/>
<path d="M35.9669 146.001C35.8546 144.661 35.8546 143.313 35.9669 141.973C36.0792 143.313 36.0792 144.661 35.9669 146.001Z" fill="#263238"/>
<path d="M34.8686 146.001C34.7557 144.657 34.7557 143.305 34.8686 141.962C34.981 143.302 34.981 144.65 34.8686 145.99V146.001Z" fill="#263238"/>
<path d="M38.4034 146.001C38.291 144.661 38.291 143.313 38.4034 141.973C38.5158 143.313 38.5158 144.661 38.4034 146.001Z" fill="#263238"/>
<path d="M37.2953 146.001C37.183 144.661 37.183 143.313 37.2953 141.973C37.4077 143.313 37.4077 144.661 37.2953 146.001Z" fill="#263238"/>
<path d="M40.8367 146.001C40.7244 144.661 40.7244 143.313 40.8367 141.973C40.949 143.313 40.949 144.661 40.8367 146.001Z" fill="#263238"/>
<path d="M39.7285 146.001C39.6156 144.657 39.6156 143.305 39.7285 141.962C39.8408 143.302 39.8408 144.65 39.7285 145.99V146.001Z" fill="#263238"/>
<path d="M43.2731 146.001C43.1608 144.661 43.1608 143.313 43.2731 141.973C43.3854 143.313 43.3854 144.661 43.2731 146.001Z" fill="#263238"/>
<path d="M42.165 146.001C42.0527 144.661 42.0527 143.313 42.165 141.973C42.2773 143.313 42.2773 144.661 42.165 146.001Z" fill="#263238"/>
<path d="M45.7095 146.001C45.5971 144.661 45.5971 143.313 45.7095 141.973C45.8219 143.313 45.8219 144.661 45.7095 146.001Z" fill="#263238"/>
<path d="M44.5885 146.001C44.4756 144.657 44.4756 143.305 44.5885 141.962C44.7008 143.302 44.7008 144.65 44.5885 145.99V146.001Z" fill="#263238"/>
<path d="M48.1524 146.001C48.0395 144.657 48.0395 143.305 48.1524 141.962C48.2648 143.302 48.2648 144.65 48.1524 145.99V146.001Z" fill="#263238"/>
<path d="M47.0347 146.001C46.9223 144.661 46.9223 143.313 47.0347 141.973C47.1471 143.313 47.1471 144.661 47.0347 146.001Z" fill="#263238"/>
<path d="M50.5792 146.001C50.4669 144.661 50.4669 143.313 50.5792 141.973C50.6915 143.313 50.6915 144.661 50.5792 146.001Z" fill="#263238"/>
<path d="M49.4712 146.001C49.3589 144.661 49.3589 143.313 49.4712 141.973C49.5835 143.313 49.5835 144.661 49.4712 146.001Z" fill="#263238"/>
<path d="M53.0124 146.001C52.8995 144.657 52.8995 143.305 53.0124 141.962C53.1248 143.302 53.1248 144.65 53.0124 145.99V146.001Z" fill="#263238"/>
<path d="M51.9043 146.001C51.792 144.661 51.792 143.313 51.9043 141.973C52.021 143.312 52.021 144.661 51.9043 146.001Z" fill="#263238"/>
<path d="M54.2501 141.912C54.2501 141.966 49.6785 142.006 44.0442 142.006C38.4099 142.006 33.8383 141.966 33.8383 141.912C33.8383 141.858 38.4066 141.819 44.0442 141.819C49.6818 141.819 54.2501 141.862 54.2501 141.912Z" fill="#263238"/>
<path d="M52.6625 145.94H32.3933V150H52.6625V145.94Z" fill="#44B1C0"/>
<path d="M34.3794 150.028C34.2671 148.689 34.2671 147.34 34.3794 146.001C34.4917 147.34 34.4917 148.689 34.3794 150.028Z" fill="#263238"/>
<path d="M33.2713 150.028C33.1589 148.689 33.1589 147.34 33.2713 146.001C33.3837 147.34 33.3837 148.689 33.2713 150.028Z" fill="#263238"/>
<path d="M36.8126 150.028C36.7002 148.689 36.7002 147.34 36.8126 146.001C36.9249 147.34 36.9249 148.689 36.8126 150.028Z" fill="#263238"/>
<path d="M35.7045 150.028C35.5922 148.689 35.5922 147.34 35.7045 146.001C35.8168 147.34 35.8168 148.689 35.7045 150.028Z" fill="#263238"/>
<path d="M39.249 150.028C39.1367 148.689 39.1367 147.34 39.249 146.001C39.3613 147.34 39.3613 148.689 39.249 150.028Z" fill="#263238"/>
<path d="M38.1409 150.028C38.0285 148.689 38.0285 147.34 38.1409 146.001C38.2533 147.34 38.2533 148.689 38.1409 150.028Z" fill="#263238"/>
<path d="M41.6726 150.028C41.5603 148.689 41.5603 147.34 41.6726 146.001C41.7849 147.34 41.7849 148.689 41.6726 150.028Z" fill="#263238"/>
<path d="M40.5774 150.028C40.4651 148.689 40.4651 147.34 40.5774 146.001C40.6897 147.34 40.6897 148.689 40.5774 150.028Z" fill="#263238"/>
<path d="M44.1187 150.028C44.0063 148.689 44.0063 147.34 44.1187 146.001C44.2311 147.34 44.2311 148.689 44.1187 150.028Z" fill="#263238"/>
<path d="M43.0106 150.028C42.8983 148.689 42.8983 147.34 43.0106 146.001C43.1229 147.34 43.1229 148.689 43.0106 150.028Z" fill="#263238"/>
<path d="M46.5552 150.028C46.4429 148.689 46.4429 147.34 46.5552 146.001C46.6675 147.34 46.6675 148.689 46.5552 150.028Z" fill="#263238"/>
<path d="M45.4471 150.028C45.3348 148.689 45.3348 147.34 45.4471 146.001C45.5594 147.34 45.5594 148.689 45.4471 150.028Z" fill="#263238"/>
<path d="M48.9917 150.028C48.8794 148.689 48.8794 147.34 48.9917 146.001C49.104 147.34 49.104 148.689 48.9917 150.028Z" fill="#263238"/>
<path d="M47.8803 150.028C47.7681 148.689 47.7681 147.34 47.8803 146.001C47.9969 147.34 47.9969 148.689 47.8803 150.028Z" fill="#263238"/>
<path d="M51.4249 150.028C51.3125 148.689 51.3125 147.34 51.4249 146.001C51.5373 147.34 51.5373 148.689 51.4249 150.028Z" fill="#263238"/>
<path d="M50.3168 150.028C50.2045 148.689 50.2045 147.34 50.3168 146.001C50.4291 147.34 50.4291 148.689 50.3168 150.028Z" fill="#263238"/>
<path d="M52.6593 145.94C52.6593 145.99 48.1007 146.034 42.4793 146.034C36.858 146.034 32.2993 145.99 32.2993 145.94C32.2993 145.89 36.8547 145.847 42.4793 145.847C48.1039 145.847 52.6593 145.894 52.6593 145.94Z" fill="#263238"/>
<path d="M54.694 150.057H34.4247V154.117H54.694V150.057Z" fill="#44B1C0"/>
<path d="M36.4109 154.146C36.2986 152.806 36.2986 151.458 36.4109 150.118C36.5232 151.458 36.5232 152.806 36.4109 154.146Z" fill="#263238"/>
<path d="M35.3027 154.146C35.1904 152.806 35.1904 151.458 35.3027 150.118C35.415 151.458 35.415 152.806 35.3027 154.146Z" fill="#263238"/>
<path d="M38.8441 154.146C38.7317 152.806 38.7317 151.458 38.8441 150.118C38.9564 151.458 38.9564 152.806 38.8441 154.146Z" fill="#263238"/>
<path d="M37.736 154.146C37.6236 152.806 37.6236 151.458 37.736 150.118C37.8484 151.458 37.8484 152.806 37.736 154.146Z" fill="#263238"/>
<path d="M41.2805 154.146C41.1682 152.806 41.1682 151.458 41.2805 150.118C41.3928 151.458 41.3928 152.806 41.2805 154.146Z" fill="#263238"/>
<path d="M40.1724 154.146C40.06 152.806 40.06 151.458 40.1724 150.118C40.2848 151.458 40.2848 152.806 40.1724 154.146Z" fill="#263238"/>
<path d="M43.717 154.146C43.6046 152.806 43.6046 151.458 43.717 150.118C43.8294 151.458 43.8294 152.806 43.717 154.146Z" fill="#263238"/>
<path d="M42.6057 154.146C42.4934 152.806 42.4934 151.458 42.6057 150.118C42.7223 151.457 42.7223 152.806 42.6057 154.146Z" fill="#263238"/>
<path d="M46.1501 154.146C46.0378 152.806 46.0378 151.458 46.1501 150.118C46.2625 151.458 46.2625 152.806 46.1501 154.146Z" fill="#263238"/>
<path d="M45.0421 154.146C44.9298 152.806 44.9298 151.458 45.0421 150.118C45.1544 151.458 45.1544 152.806 45.0421 154.146Z" fill="#263238"/>
<path d="M48.5867 154.146C48.4744 152.806 48.4744 151.458 48.5867 150.118C48.699 151.458 48.699 152.806 48.5867 154.146Z" fill="#263238"/>
<path d="M47.4786 154.146C47.3662 152.806 47.3662 151.458 47.4786 150.118C47.591 151.458 47.591 152.806 47.4786 154.146Z" fill="#263238"/>
<path d="M51.0231 154.146C50.9108 152.806 50.9108 151.458 51.0231 150.118C51.1354 151.458 51.1354 152.806 51.0231 154.146Z" fill="#263238"/>
<path d="M49.9118 154.146C49.7994 152.806 49.7994 151.458 49.9118 150.118C50.0242 151.458 50.0242 152.806 49.9118 154.146Z" fill="#263238"/>
<path d="M53.4564 154.146C53.344 152.806 53.344 151.458 53.4564 150.118C53.5687 151.458 53.5687 152.806 53.4564 154.146Z" fill="#263238"/>
<path d="M52.3645 154.146C52.2522 152.806 52.2522 151.458 52.3645 150.118C52.4768 151.458 52.4768 152.806 52.3645 154.146Z" fill="#263238"/>
<path d="M54.6908 150.057C54.6908 150.111 50.1322 150.151 44.5108 150.151C38.8895 150.151 34.3308 150.111 34.3308 150.057C34.3308 150.004 38.8862 149.964 44.5108 149.964C50.1354 149.964 54.6908 150.007 54.6908 150.057Z" fill="#263238"/>
<g opacity="0.3">
<path opacity="0.3" d="M33.9808 141.912C37.0492 142.687 40.2068 142.94 43.3444 142.662C46.4548 142.437 49.5943 141.948 52.7112 141.973L33.9808 141.912Z" fill="black"/>
</g>
<g opacity="0.3">
<path opacity="0.3" d="M34.1655 137.87C37.2328 138.644 40.3891 138.898 43.5258 138.624C46.6361 138.395 49.7789 137.891 52.8958 137.931L34.1655 137.87Z" fill="black"/>
</g>
<g opacity="0.3">
<path opacity="0.3" d="M35.144 145.979C38.2124 146.753 41.3698 147.007 44.5075 146.733C47.6179 146.504 50.7574 146.001 53.8743 146.04L35.144 145.979Z" fill="black"/>
</g>
<g opacity="0.3">
<path opacity="0.3" d="M34.3501 150.035C37.4189 150.807 40.576 151.06 43.7137 150.786C46.824 150.557 49.9636 150.053 53.0804 150.093L34.3501 150.035Z" fill="black"/>
</g>
<path d="M34.0229 136.476C33.9106 135.74 33.9106 134.989 34.0229 134.253C34.1353 134.989 34.1353 135.74 34.0229 136.476Z" fill="white"/>
<path d="M32.7464 140.815C32.634 140.025 32.634 139.221 32.7464 138.431C32.8588 139.221 32.8588 140.025 32.7464 140.815Z" fill="white"/>
<path d="M34.564 144.989C34.4516 144.291 34.4516 143.576 34.564 142.877C34.6764 143.576 34.6764 144.291 34.564 144.989Z" fill="white"/>
<path d="M32.6978 148.842C32.5812 148.216 32.5812 147.57 32.6978 146.944C32.81 147.57 32.81 148.215 32.6978 148.842Z" fill="white"/>
<path d="M40.1206 138.16C40.1206 138.21 38.6237 138.253 36.777 138.253C34.9302 138.253 33.4333 138.21 33.4333 138.16C34.5457 138.065 35.6617 138.034 36.777 138.067C37.8922 138.034 39.0082 138.065 40.1206 138.16Z" fill="white"/>
<path d="M42.2816 134.253C41.1617 134.348 40.0381 134.379 38.9153 134.347C37.7926 134.379 36.669 134.348 35.5491 134.253C35.5491 134.203 37.0556 134.16 38.9153 134.16C40.7751 134.16 42.2816 134.203 42.2816 134.253Z" fill="white"/>
<path d="M45.5249 134.311C44.7926 134.435 44.0475 134.435 43.3152 134.311C44.0475 134.186 44.7926 134.186 45.5249 134.311Z" fill="white"/>
<path d="M114.98 127.818H109.206V121.156H101.068V127.818H94.7692V136.795H101.068V143.45H109.206V136.795H114.98V127.818Z" fill="white" stroke="#263238" stroke-miterlimit="10"/>
<path d="M139.43 138.982L136.995 140.116L135.849 137.121L132.417 138.72L133.563 141.714L130.907 142.951L132.451 146.986L135.107 145.749L136.252 148.74L139.684 147.141L138.54 144.15L140.974 143.016L139.43 138.982Z" fill="white" stroke="#263238" stroke-miterlimit="10"/>
<path d="M49.2539 122.024L46.7285 121.165L47.5971 118.059L44.037 116.848L43.1684 119.953L40.4134 119.016L39.2428 123.201L41.9979 124.138L41.1302 127.24L44.6902 128.452L45.5579 125.35L48.0834 126.209L49.2539 122.024Z" fill="white" stroke="#263238" stroke-miterlimit="10"/>
</svg>
