<svg width="41" height="40" viewBox="0 0 41 40" fill="none" xmlns="http://www.w3.org/2000/svg">
<path d="M40.5 4.74473C39.029 5.54653 37.4488 6.08828 35.7876 6.33316C37.5017 5.0715 38.7841 3.0858 39.3954 0.746578C37.785 1.92325 36.0225 2.75149 34.1845 3.19531C32.9485 1.57192 31.3113 0.495911 29.5273 0.134339C27.7432 -0.227233 25.912 0.145862 24.3179 1.1957C22.7239 2.24554 21.4562 3.91338 20.7117 5.94028C19.9672 7.96719 19.7875 10.2398 20.2005 12.4051C16.9374 12.2036 13.7452 11.1603 10.8311 9.34294C7.91693 7.52558 5.34602 4.97478 3.28517 1.85609C2.58051 3.35134 2.17533 5.08495 2.17533 6.93125C2.17454 8.59335 2.50728 10.23 3.14402 11.696C3.78076 13.1619 4.70182 14.4119 5.82546 15.335C4.52233 15.284 3.24795 14.8508 2.10839 14.0716V14.2016C2.10825 16.5328 2.76378 18.7922 3.96372 20.5965C5.16367 22.4008 6.83413 23.6388 8.69167 24.1006C7.4828 24.503 6.21538 24.5623 4.98516 24.2739C5.50924 26.2797 6.53012 28.0338 7.90486 29.2904C9.2796 30.5471 10.9394 31.2434 12.6519 31.2821C9.74484 34.0892 6.15469 35.612 2.45895 35.6053C1.80429 35.6055 1.15018 35.5584 0.5 35.4644C4.25139 38.4314 8.61828 40.0061 13.0782 40C28.1755 40 36.4288 24.6185 36.4288 11.2783C36.4288 10.8449 36.42 10.4072 36.4042 9.97375C38.0095 8.54563 39.3953 6.77717 40.4965 4.75123L40.5 4.74473Z" fill="white"/>
</svg>
