<svg width="35" height="32" viewBox="0 0 35 32" fill="none" xmlns="http://www.w3.org/2000/svg">
<path d="M32.5 0.375H2.5C1.83696 0.375 1.20107 0.70424 0.732233 1.29029C0.263392 1.87634 0 2.6712 0 3.5V28.5C0 29.3288 0.263392 30.1237 0.732233 30.7097C1.20107 31.2958 1.83696 31.625 2.5 31.625H32.5C33.163 31.625 33.7989 31.2958 34.2678 30.7097C34.7366 30.1237 35 29.3288 35 28.5V3.5C35 2.6712 34.7366 1.87634 34.2678 1.29029C33.7989 0.70424 33.163 0.375 32.5 0.375ZM29.75 3.5L17.5 14.0938L5.25 3.5H29.75ZM2.5 28.5V4.92188L16.7875 17.2812C16.9967 17.4627 17.2453 17.5599 17.5 17.5599C17.7547 17.5599 18.0033 17.4627 18.2125 17.2812L32.5 4.92188V28.5H2.5Z" fill="white"/>
</svg>
