<svg width="41" height="40" viewBox="0 0 41 40" fill="none" xmlns="http://www.w3.org/2000/svg">
<path d="M20.4946 13.3305C16.8222 13.3305 13.8252 16.3275 13.8252 20C13.8252 23.6725 16.8222 26.6695 20.4946 26.6695C24.167 26.6695 27.164 23.6725 27.164 20C27.164 16.3275 24.167 13.3305 20.4946 13.3305ZM40.4978 20C40.4978 17.2381 40.5228 14.5013 40.3677 11.7444C40.2126 8.54226 39.4821 5.70034 37.1406 3.35876C34.794 1.01217 31.9572 0.286681 28.7551 0.131576C25.9932 -0.0235287 23.2564 0.00148823 20.4996 0.00148823C17.7378 0.00148823 15.001 -0.0235287 12.2442 0.131576C9.0421 0.286681 6.20023 1.01717 3.85869 3.35876C1.51215 5.70534 0.786675 8.54226 0.631574 11.7444C0.476472 14.5063 0.501488 17.2431 0.501488 20C0.501488 22.7569 0.476472 25.4987 0.631574 28.2556C0.786675 31.4577 1.51716 34.2997 3.85869 36.6412C6.20524 38.9878 9.0421 39.7133 12.2442 39.8684C15.006 40.0235 17.7428 39.9985 20.4996 39.9985C23.2614 39.9985 25.9982 40.0235 28.7551 39.8684C31.9572 39.7133 34.799 38.9828 37.1406 36.6412C39.4871 34.2947 40.2126 31.4577 40.3677 28.2556C40.5278 25.4987 40.4978 22.7619 40.4978 20ZM20.4946 30.2619C14.8159 30.2619 10.2329 25.6788 10.2329 20C10.2329 14.3212 14.8159 9.73807 20.4946 9.73807C26.1734 9.73807 30.7564 14.3212 30.7564 20C30.7564 25.6788 26.1734 30.2619 20.4946 30.2619ZM31.1766 11.7144C29.8508 11.7144 28.7801 10.6437 28.7801 9.31778C28.7801 7.99189 29.8508 6.92116 31.1766 6.92116C32.5025 6.92116 33.5732 7.99189 33.5732 9.31778C33.5736 9.63262 33.5119 9.94445 33.3916 10.2354C33.2713 10.5263 33.0948 10.7907 32.8722 11.0133C32.6495 11.236 32.3852 11.4125 32.0942 11.5328C31.8033 11.6531 31.4915 11.7148 31.1766 11.7144Z" fill="white"/>
</svg>
